<svg xmlns="http://www.w3.org/2000/svg" width="50" height="50" viewBox="0 0 50 50"><defs><clipPath id="56ova"><path fill="#fff" d="M0 0h50v50H0z"/></clipPath></defs><g><g><path fill="#a9e8ff" d="M0 0h50v50H0z"/><path fill="none" stroke="#c0eeff" stroke-miterlimit="20" stroke-width="6" d="M0 0v0h50v50H0v0z" clip-path="url(&quot;#56ova&quot;)"/></g><g transform="rotate(-270 25 25.5)"><path fill="#696969" d="M33.572 21.255l-.866-.84c-.3-.277-.65-.415-1.051-.415-.409 0-.755.138-1.04.414L25 25.86l-5.615-5.444a1.438 1.438 0 0 0-1.04-.415c-.4 0-.75.138-1.051.415l-.855.84a1.37 1.37 0 0 0-.439 1.02c0 .402.146.738.439 1.007l7.521 7.292c.278.284.624.426 1.04.426.408 0 .759-.142 1.051-.426l7.521-7.292c.285-.276.428-.612.428-1.008 0-.388-.143-.728-.428-1.02z"/></g></g></svg>