<svg width="478" height="69" viewBox="0 0 478 69" fill="none" xmlns="http://www.w3.org/2000/svg">
<path d="M0 15.2998H3.4V32.2998C5.9 28.6998 9.9 26.4998 14.3 26.4998C22.7 26.4998 28.3 33.0998 28.3 42.9998C28.3 53.0998 22.6 59.3998 14.3 59.3998C9.6 59.3998 5.6 56.8998 3.4 53.5998V58.5998H0V15.2998ZM13.7 56.2998C20.7 56.2998 24.7 50.4998 24.7 42.8998C24.7 35.2998 20.7 29.4998 13.7 29.4998C9.3 29.4998 5.2 32.1998 3.4 35.1998V50.6998C5.2 53.6998 9.3 56.2998 13.7 56.2998Z" fill="white"/>
<path d="M58.2 54.0002C55.6 56.9002 51.4 59.4002 46.9 59.4002C40.5 59.4002 37 56.4002 37 49.3002V27.2002H40.4V48.5002C40.4 54.6002 43.5 56.3002 48 56.3002C52 56.3002 56.1 53.9002 58.2 51.1002V27.2002H61.6V58.6002H58.2V54.0002V54.0002Z" fill="white"/>
<path d="M85.6008 26.5C91.0008 26.5 94.2008 28.6 96.7008 31.8L94.4008 33.9C92.1008 30.8 89.3008 29.6 85.8008 29.6C78.5008 29.6 74.0008 35.4 74.0008 43C74.0008 50.6 78.5008 56.4 85.8008 56.4C89.2008 56.4 92.0008 55.1 94.4008 52L96.7008 54.1C94.2008 57.3 91.0008 59.5 85.6008 59.5C76.4008 59.5 70.3008 52.2 70.3008 43C70.3008 33.8 76.4008 26.5 85.6008 26.5Z" fill="white"/>
<path d="M113.399 43.6998L107.599 49.1998V58.5998H104.199V15.2998H107.599V45.1998L125.999 27.1998H130.499L115.899 41.3998L130.399 58.5998H125.899L113.399 43.6998Z" fill="white"/>
<path d="M148.901 26.5C158.401 26.5 163.701 34.1 163.701 43.1V44H137.501C137.801 50.8 142.401 56.5 149.701 56.5C153.701 56.5 157.301 55 160.001 52.1L161.801 54.3C158.701 57.5 154.701 59.4 149.501 59.4C140.301 59.4 133.801 52.6 133.801 42.9C133.801 33.8 140.201 26.5 148.901 26.5ZM137.501 41.3H160.301C160.201 36 156.701 29.4 148.901 29.4C141.401 29.4 137.701 35.9 137.501 41.3Z" fill="white"/>
<path d="M173.001 52.5996V30.2996H167.801V27.1996H173.001V18.5996H176.401V27.1996H182.801V30.2996H176.401V52.0996C176.401 54.5996 177.401 56.3996 179.601 56.3996C181.101 56.3996 182.401 55.6996 183.101 54.8996L184.401 57.4996C183.201 58.6996 181.701 59.3996 179.101 59.3996C175.001 59.3996 173.001 56.7996 173.001 52.5996Z" fill="white"/>
<path d="M207.1 15.2998H210.5V58.5998H207.1V15.2998Z" fill="white"/>
<path d="M220 19.3002C220 17.9002 221.2 16.7002 222.6 16.7002C224 16.7002 225.2 17.9002 225.2 19.3002C225.2 20.7002 224 21.9002 222.6 21.9002C221.3 21.9002 220 20.7002 220 19.3002ZM221 27.2002H224.4V58.6002H221V27.2002Z" fill="white"/>
<path d="M234.1 51.8994C236.1 54.3994 239.7 56.4994 244.2 56.4994C249.5 56.4994 252.6 53.8994 252.6 50.2994C252.6 46.2994 248.3 45.0994 243.8 43.8994C238.6 42.5994 232.8 41.1994 232.8 35.0994C232.8 30.2994 236.8 26.3994 244 26.3994C249.4 26.3994 253 28.4994 255.2 31.0994L253.3 33.3994C251.5 30.8994 248.1 29.1994 244 29.1994C239.1 29.1994 236.1 31.5994 236.1 34.7994C236.1 38.3994 240.1 39.2994 244.5 40.3994C249.9 41.9994 255.9 43.4994 255.9 50.1994C255.9 55.2994 251.9 59.3994 244.1 59.3994C239 59.3994 235.1 57.8994 232 54.4994L234.1 51.8994Z" fill="white"/>
<path d="M265.3 52.5996V30.2996H260.1V27.1996H265.3V18.5996H268.7V27.1996H275.1V30.2996H268.7V52.0996C268.7 54.5996 269.7 56.3996 271.9 56.3996C273.4 56.3996 274.7 55.6996 275.4 54.8996L276.7 57.4996C275.5 58.6996 274 59.3996 271.4 59.3996C267.3 59.3996 265.3 56.7996 265.3 52.5996Z" fill="white"/>
<path d="M305.001 59.9C304.101 54.4 303.801 47.4 303.801 40.3C303.801 33.7 304.001 27.6 304.401 22.5C301.801 23.2 297.101 24.7 295.601 25.6C294.401 26.9 291.501 25.3 293.301 24C294.801 22.9 301.001 21.1 304.501 20.4C305.501 9.2 307.401 0 308.801 0C309.501 0.1 312.101 2 312.101 3.2C312.101 3.4 312.101 3.5 312.001 3.6C311.301 4.6 309.201 10.1 308.301 19.6C313.601 18.8 318.701 18.2 322.501 18.2C323.501 18.2 324.301 18.2 325.101 18.3C325.401 18.5 325.501 18.8 325.501 19.1C325.501 20.2 325.201 20.7 324.701 20.7H324.601C323.701 20.6 318.101 20.1 308.201 21.6C307.901 24.7 307.501 31.5 307.501 39.3C307.501 45.5 307.701 52 308.401 57.2C308.901 61.1 310.001 63.6 311.001 65.3C311.101 65.4 311.101 65.6 311.101 65.7C311.101 65.9 311.001 66 310.901 66C311.101 65.9 305.901 65.2 305.001 59.9Z" fill="#D3B27C"/>
<path d="M319.001 57.9002C318.501 56.7002 318.301 54.5002 318.301 52.2002C318.301 48.4002 318.801 44.0002 319.601 41.9002C319.801 41.4002 320.401 41.2002 321.001 41.2002C322.001 41.2002 323.201 41.6002 323.201 42.1002V42.2002C322.501 43.8002 322.001 48.9002 322.001 52.1002C322.001 53.6002 322.101 54.6002 322.401 54.7002C322.801 51.7002 325.201 36.2002 331.201 36.2002C331.801 36.2002 332.401 36.4002 333.101 36.7002C335.601 38.0002 338.501 44.1002 341.301 45.3002C341.601 45.4002 341.901 45.5002 342.301 45.5002C343.801 45.5002 345.901 44.3002 348.601 41.9002C348.901 41.6002 349.201 41.5002 349.501 41.5002C349.801 41.5002 350.101 41.7002 350.101 42.0002C350.101 42.2002 350.001 42.5002 349.601 42.8002C345.401 46.6002 342.101 48.1002 339.901 48.1002C339.401 48.1002 339.001 48.0002 338.601 47.8002C336.201 46.8002 334.601 43.3002 331.701 40.3002C331.101 39.8002 330.601 39.5002 330.101 39.5002C327.501 39.5002 325.501 46.2002 324.401 51.8002C323.801 55.0002 323.701 57.7002 323.401 58.2002C322.901 59.0002 322.201 59.3002 321.401 59.3002C320.201 59.4002 319.301 58.9002 319.001 57.9002Z" fill="#D3B27C"/>
<path d="M367.401 55.8996C365.301 54.2996 364.801 50.2996 364.801 46.7996C364.801 45.0996 364.901 43.4996 365.001 42.3996C365.101 41.9996 365.101 41.5996 365.101 41.2996C365.101 40.4996 365.001 40.1996 364.701 40.1996C364.501 40.1996 364.201 40.3996 363.801 40.8996C361.701 43.3996 359.001 48.2996 354.801 49.5996C354.201 49.7996 353.701 49.8996 353.201 49.8996C351.001 49.8996 349.801 48.1996 349.801 46.0996C349.801 45.7996 349.801 45.3996 349.901 45.0996C350.201 43.1996 351.101 41.0996 353.401 39.5996C354.901 38.5996 356.501 38.1996 358.001 38.1996C360.201 38.1996 362.201 38.9996 363.101 39.8996C363.901 38.6996 365.101 38.0996 366.101 38.0996C367.701 38.0996 369.001 39.3996 369.001 41.6996V41.8996C369.001 43.0996 368.601 45.5996 368.601 47.9996C368.601 50.3996 368.901 52.7996 370.201 53.8996C370.601 54.1996 371.201 54.3996 371.701 54.3996C376.001 54.3996 383.001 43.6996 384.601 41.8996C384.801 41.6996 385.001 41.5996 385.201 41.5996C385.501 41.5996 385.801 41.8996 385.801 42.1996C385.801 42.3996 385.701 42.4996 385.601 42.6996C383.401 45.3996 376.101 57.0996 370.001 57.0996C369.301 56.7996 368.301 56.5996 367.401 55.8996ZM355.601 47.0996C359.001 45.9996 360.301 43.2996 362.401 40.6996C361.501 40.3996 360.701 40.1996 360.001 40.1996C356.201 40.1996 353.701 43.6996 353.701 45.7996C353.701 46.5996 354.101 47.1996 355.001 47.1996C355.201 47.1996 355.401 47.1996 355.601 47.0996Z" fill="#D3B27C"/>
<path d="M389.5 55.3004C387.8 52.2004 386 46.5004 386 43.0004L386.1 42.0004C386.2 41.4004 387.4 41.1004 388.5 41.1004C389.5 41.1004 390.4 41.4004 390.4 41.9004V42.0004C390.3 42.5004 390.3 43.0004 390.3 43.6004C390.3 46.6004 391.1 50.6004 392.7 52.8004C392.7 51.7004 398.2 37.9004 404.2 33.0004C404.3 32.9004 404.5 32.9004 404.6 32.9004C405.5 32.9004 407 34.4004 407 35.2004C407 35.4004 406.9 35.5004 406.8 35.6004C400.6 39.6004 395.5 50.1004 393.5 56.5004C393.2 57.4004 392.7 57.7004 392.2 57.7004C391.3 57.6004 390.3 56.8004 389.5 55.3004Z" fill="#D3B27C"/>
<path d="M419.901 54.5002C414.701 54.2002 412.201 49.5002 412.201 44.7002C412.201 39.7002 414.901 34.5002 420.001 33.8002L420.801 33.7002C423.001 33.7002 424.201 35.1002 424.201 36.9002C424.201 37.8002 423.901 38.7002 423.301 39.7002C422.301 41.3002 419.701 43.2002 416.101 44.7002V45.2002C416.101 50.0002 418.801 52.0002 422.101 52.0002C423.701 52.0002 425.601 51.5002 427.301 50.6002C431.401 48.4002 434.001 45.0002 437.101 41.7002C437.301 41.4002 437.501 41.4002 437.801 41.4002C438.101 41.4002 438.301 41.7002 438.301 42.0002C438.301 42.2002 438.201 42.4002 438.001 42.7002C437.301 43.6002 436.301 44.7002 435.201 46.0002C429.001 52.8002 424.301 54.6002 420.601 54.6002L419.901 54.5002ZM421.701 37.3002C421.701 37.0002 421.601 36.8002 421.401 36.7002C421.201 36.6002 421.001 36.6002 420.801 36.6002C419.501 36.6002 417.101 38.0002 416.001 42.7002C419.801 41.3002 421.701 38.5002 421.701 37.3002Z" fill="#D3B27C"/>
<path d="M440.8 61.5004C439.5 54.8004 438.9 46.2004 438.9 37.7004C438.9 20.4004 441.4 3.40039 446.4 3.40039C446.7 3.40039 446.9 3.50039 447.1 3.50039C449.8 4.30039 450.9 8.20039 450.9 13.4004C450.9 22.2004 447.5 34.6004 442.5 41.3004C442.5 41.9004 442.4 43.0004 442.4 44.4004C442.4 50.7004 443.1 63.6004 447.6 66.6004C447.7 66.7004 447.8 66.8004 447.8 66.9004C447.8 67.1004 447.7 67.2004 447.4 67.3004C447.6 67.4004 441.8 66.7004 440.8 61.5004ZM449.1 13.2004V12.7004C449.1 10.0004 448.4 8.50039 447.5 8.50039C447 8.50039 446.4 9.00039 445.8 10.1004C443.5 14.8004 442.6 31.8004 442.5 38.8004C444.7 35.1004 448.9 25.7004 449.1 13.2004Z" fill="#D3B27C"/>
<path d="M455.902 65.4996C455.902 64.7996 456.102 64.0996 456.502 63.1996C457.802 60.4996 460.602 57.9996 462.802 55.9996C459.702 51.8996 454.602 49.0996 454.602 42.9996V42.6996C454.702 38.0996 460.702 32.5996 464.602 32.5996C466.202 32.5996 467.502 33.4996 468.002 35.6996C468.002 35.8996 468.102 36.0996 468.102 36.2996C468.102 36.9996 467.902 37.6996 467.602 37.6996C467.502 37.6996 467.302 37.5996 467.202 37.3996C466.902 36.8996 466.302 36.5996 465.502 36.5996C462.802 36.5996 458.302 39.8996 458.302 44.1996C458.302 44.5996 458.402 45.0996 458.502 45.5996C459.502 49.9996 462.102 51.2996 464.702 54.3996C470.002 49.8996 471.702 47.9996 476.402 41.9996C476.702 41.6996 476.902 41.5996 477.202 41.5996C477.502 41.5996 477.802 41.7996 477.802 42.0996C477.802 42.2996 477.702 42.4996 477.502 42.6996C473.102 48.2996 470.502 51.2996 465.502 55.5996C466.602 57.1996 467.102 58.8996 467.102 60.4996C467.102 64.2996 464.302 67.4996 460.702 68.2996C460.202 68.3996 459.702 68.4996 459.302 68.4996C457.202 68.2996 455.902 67.1996 455.902 65.4996ZM464.402 59.4996C464.402 58.7996 464.202 57.9996 463.702 57.1996C460.002 60.7996 458.702 62.7996 458.702 63.8996C458.702 64.3996 459.002 64.6996 459.602 64.6996C461.102 64.5996 464.402 62.3996 464.402 59.4996Z" fill="#D3B27C"/>
</svg>
