<?xml version="1.0" encoding="utf-8"?>
<!-- Generator: Adobe Illustrator 25.4.1, SVG Export Plug-In . SVG Version: 6.00 Build 0)  -->
<svg version="1.1" id="Layer_1" xmlns="http://www.w3.org/2000/svg" xmlns:xlink="http://www.w3.org/1999/xlink" x="0px" y="0px"
	 viewBox="0 0 857.1 86.6" style="enable-background:new 0 0 857.1 86.6;" xml:space="preserve">
<style type="text/css">
	.st0{fill:#fff;}
	.st1{fill:#D3B27D;}
</style>
<path class="st0" d="M0,4.3h6.1v31.7c4.5-6.7,11.7-10.9,19.6-10.9c15.1,0,25.1,12.2,25.1,30.7c0,18.8-10.3,30.6-25.1,30.6
	c-8.4,0-15.6-4.7-19.6-10.8V85H0V4.3z M24.3,80.8c12.4,0,19.4-10.8,19.4-24.9s-7-25-19.4-25c-7.7,0-15,5-18.3,10.6v28.8
	C9.3,75.9,16.6,80.8,24.3,80.8"/>
<path class="st0" d="M102,76c-4.5,5.3-11.9,9.9-20,9.9c-11.3,0-17.5-5.5-17.5-18.6V26.5h6.1v39.6c0,11.4,5.3,14.5,13.4,14.5
	c7,0,14.3-4.4,17.9-9.7V26.5h6.1V85h-6.1V76H102z"/>
<path class="st0" d="M149.1,25.1c9.5,0,15.1,4,19.6,9.9l-4.1,3.8c-4.1-5.8-9.1-8.1-15.1-8.1c-12.9,0-20.9,10.9-20.9,24.9
	c0,14,7.9,25,20.9,25c6.1,0,11-2.4,15.1-8.2l4.1,3.8c-4.4,6.1-10.1,10-19.6,10c-16.2,0-26.9-13.6-26.9-30.7S132.9,25.1,149.1,25.1"
	/>
<polygon class="st0" points="196.9,57.2 186.6,67.5 186.6,85 180.6,85 180.6,4.3 186.6,4.3 186.6,59.9 219.2,26.5 227.3,26.5
	201.4,52.9 227.2,85 219.1,85 "/>
<path class="st0" d="M284.5,51.9v5.9h-46.3c0.6,12.7,8.6,23.2,21.6,23.2c7.1,0,13.4-2.8,18.3-8.1l3.1,4.1
	c-5.5,6.1-12.5,9.4-21.7,9.4c-16.1,0-27.7-12.7-27.7-30.7c-0.1-17.5,12.1-31.6,28.1-30.6C273.8,26,284.5,37.9,284.5,51.9
	 M238.4,52.8h40.2c-0.1-9.9-6.3-22.2-20.2-22.2C245.4,30.5,238.9,42.6,238.4,52.8"/>
<path class="st0" d="M299.6,74V32.6h-9.1v-6.1h9.1V10.4h7.1v16.1h11.1v6.1h-12.1V73c0,4.7,1.8,8,5.8,8c2.6,0,4.9-1.3,6.2-2.8
	l2.3,4.8c-2.2,2.2-4.8,3.6-9.4,3.6C303.1,86.7,299.6,82,299.6,74"/>
<rect x="358.1" y="4.3" class="st0" width="6.1" height="80.7"/>
<path class="st0" d="M379.5,11.9c0-2.6,2.2-4.8,4.5-4.8c2.5,0,4.5,2.2,4.5,4.8c0,2.6-2,4.8-4.5,4.8
	C381.8,16.7,379.5,14.5,379.5,11.9 M381.3,26.5h6.1V85h-6.1V26.5z"/>
<path class="st0" d="M403.2,72.5c3.5,4.7,10,8.6,17.9,8.6c9.3,0,14.8-4.8,14.8-11.6c0-7.5-7.6-9.7-15.5-11.8
	c-9.2-2.4-19.4-4.9-19.4-16.3c0-9,7.1-16.2,19.7-16.2c9.5,0,15.8,3.8,19.8,8.7l-3.3,4.3c-3.2-4.6-9.2-7.8-16.5-7.8
	c-8.6,0-13.8,4.4-13.8,10.5c0,6.7,7.1,8.5,14.8,10.5c9.5,2.5,20.2,5.3,20.2,17.8c0,9.4-7,17.1-20.8,17.1c-9,0-15.8-2.8-21.3-9.2
	L403.2,72.5z"/>
<path class="st0" d="M456.9,74V32.6h-9.1v-6.1h9.1V10.4h6.1v16.1h11.1v6.1H463V73c0,4.7,1.8,8,5.8,8c2.6,0,4.9-1.3,6.2-2.8l2.3,4.8
	c-2.2,2.2-4.8,3.6-9.4,3.6C460.5,86.7,456.9,82,456.9,74"/>
<path class="st1" d="M555.4,46.6c-0.4,0-0.6,0.1-0.6,0.5c-0.7,5-7.1,18.9-8.5,20.7c-0.9,1.2-1.7,1.6-2.5,1.6
	c-4.8,0-7.7-18.4-12.1-18.7h-0.3c-6.9,0.1-8.9,20.6-13,26c-0.2,0.2-0.4,0.3-0.6,0.3c-1.6,0-3.6-7.8-3.7-13.9c0-2.1,0.2-3.9,0.8-5.3
	l0.1-0.2c0-0.8-2.7-1.4-4.8-1.4c-0.9,0-1.6,0.1-2,0.5c-0.5,0.6-0.8,2.2-0.8,4.5c0.1,7.6,3.3,21.7,8.6,21.8h0.1
	c6.6-0.1,9.9-23.2,12.8-25.4c0.1-0.1,0.2-0.1,0.3-0.1c1.8,0,4.2,12.3,9.5,15.6c1.1,0.7,2.3,1.1,3.7,1.1c3.2,0,7-2.8,10.6-11.7
	c0.5-1.3,5.5-10.7,5.9-11.8L559,50C559,48.3,556.5,46.6,555.4,46.6"/>
<path class="st1" d="M571.1,50.8c2.2,0,4-1.3,4-2.9c0-1.6-1.8-2.8-4-2.8c-2.2,0-4,1.3-4,2.9C567.1,49.5,568.9,50.8,571.1,50.8"/>
<path class="st1" d="M678.8,54.6c-0.5,0-1,0.2-1.4,0.6c-8.4,8.5-12.9,12.1-16.6,12.1c-0.3,0-0.7,0-1-0.1c-8.5-1.5-10.9-18.4-17-18.5
	h-1.7c-4.9,0-8.5,7.3-11.7,14.7c-0.2,0.5-4.5,13.2-6.6,13.2c-0.6,0-1-0.8-1.1-2.9c-0.4-4.8-0.8-10-0.8-15c0-2,0-4,0.1-5.9
	c7.9-9.1,13.9-23.4,13.8-33.2c0-5.3-1.9-9.3-6.2-10.4C628,9.1,627.5,9,627,9c-5.5,0-8.5,8-10.2,18.5c-4.4,0.3-9.2,0.8-14.1,1.4
	c1.4-11.5,4.9-18.1,6-19.3c0.2-0.2,0.2-0.3,0.2-0.5c0-1.5-4.4-3.8-5.6-3.8h-0.1c-2.3,0-5.4,11.1-7.1,24.5
	c-5.9,0.9-16.2,3.1-18.7,4.5c-3.1,1.7,1.8,3.6,3.8,2c2.5-1.1,10.3-2.9,14.6-3.8c-0.7,6.2-1,13.5-0.9,21.4c0,1.9,0.1,3.9,0.1,5.8
	c-7.5,7.5-14.4,12.9-18.6,13c-2.7,0-4.3-2.1-4.4-7.4c0-2.3,0.2-5.2,0.9-8.7v0.1c0-1-2-1.5-3.9-1.5c-1.5,0-3,0.4-3.1,1.2
	c-0.5,3.3-0.6,6.1-0.6,8.5c0.1,8,2.7,11.2,6.4,11.9c0.5,0.1,1.1,0.1,1.7,0.1c6.1,0,13.3-5.5,22.1-14.3c0.3,5.7,0.9,11,2,15.5
	c1.5,6.5,10.5,7.4,10.5,7.4c0.3,0,0.4-0.2,0.4-0.3c0-0.2-0.1-0.3-0.2-0.5c-1.8-2-3.6-5.1-4.5-9.9c-1.2-6.3-1.6-14.4-1.7-22
	c-0.1-9.6,0.5-17.9,0.9-21.7c5.5-0.6,10.3-1,14.2-1.2c-1.1,8.7-1.4,18.7-1.3,27.5c0.1,10.8,0.7,19.9,1.1,22.6c0.4,3.2,2.5,5,4.6,5
	c1.4,0,3-0.9,4.1-2.8c3.1-5.3,6.1-17.4,10.8-25.4c1.1-1.9,2.1-2.7,3.1-2.8c4.6,0,8,18.1,18.9,18h0.4c5-0.3,10.5-5.7,20.1-15.8
	c0.3-0.3,0.5-0.6,0.5-0.8C679.8,55,679.3,54.6,678.8,54.6 M626.8,16.3c0.8-1.1,1.6-1.7,2.4-1.7c1.7,0,3.1,2.8,3.2,7v1.1
	c-0.1,1.6-0.2,3.3-0.5,4.9c-0.1-0.1-0.2-0.1-0.3-0.2c-1.3-0.1-2.8-0.1-4.3-0.1c-1.2,0-2.5,0.1-3.9,0.1
	C624,22.9,625.1,18.7,626.8,16.3 M630.8,30.6h0.2c0.1,0,0.3,0,0.4-0.1c-1.5,6.6-4.6,13.3-9.7,20.5c0.1-4.8,0.2-13,1.2-20.5
	C627.4,30.4,630,30.5,630.8,30.6"/>
<path class="st1" d="M749.9,80.2L749.9,80.2c-1.1,0.3-2.1,0.4-3.2,0.4c-8.4,0.1-19-6.9-25.7-14c1.1-1.1,13.3-12.6,13.3-17
	c0-1.1-0.8-1.9-2.8-1.8h-0.1c-6.5,0.2-13,16-14.7,19.8c-0.7,1.5-3.7,9.7-5.4,9.7c-0.5,0-0.9-0.8-1.1-2.9c-0.5-5.4-1.2-11.8-1.2-17.6
	l0.1-3.4c6.2-4.7,13.3-22.3,13.2-34c0-5.3-1.6-9.4-5.4-10.4c-0.7-0.3-1.3-0.3-1.9-0.3C705,8.7,702.9,31.5,703,51.3
	c0.1,12.7,1.1,24.3,1.6,27.8c0.4,3,2.4,4.8,4.6,4.8c1.5,0,3.1-0.9,4.2-2.8c2.1-3.7,3.1-6.9,4.9-10.8c8.4,8.4,15.4,12.2,20.5,13.1
	c1,0.1,1.9,0.2,2.7,0.2c4.9,0,7.9-2.5,8.5-3.1C750.2,80.3,750,80.2,749.9,80.2 M729.3,50.7c0.4-0.3,0.7-0.4,0.9-0.4
	c0.1,0,0.2,0,0.2,0.2c0,1.2-5.8,8.3-8,10.3C723.5,58.9,727.1,52.1,729.3,50.7 M713.6,15.6c0.8-1.1,1.5-1.7,2.1-1.7
	c1.5,0,2.5,2.7,2.5,6.8V22c-0.4,8.9-4.4,22.5-9.8,27.8C708.5,41.4,708.8,22.6,713.6,15.6"/>
<path class="st1" d="M748,49.4c2.2,0,4-1.3,4-2.9c0-1.6-1.8-2.8-4-2.8c-2.2,0-4,1.3-4,2.9C744,48.1,745.9,49.4,748,49.4"/>
<path class="st1" d="M857.1,54.1c0-0.4-0.4-0.6-1-0.6c-0.4,0-0.9,0.2-1.3,0.5c-7.9,7.4-10.7,9.7-19.7,15.2
	c-4.3-3.6-8.8-5.2-10.5-10.5c-0.2-0.6-0.3-1.1-0.3-1.6c0-5.2,7.6-9.3,12-9.4c1.3,0,2.2,0.3,2.8,0.9c0.2,0.3,0.5,0.4,0.7,0.4
	c0.5,0,0.9-0.8,0.9-1.6c0-0.2-0.1-0.5-0.1-0.7c-0.9-2.6-3-3.7-5.7-3.7c-6.8,0.1-16.7,6.9-16.9,12.4v0.4c0.1,7.4,8.8,10.7,14,15.6
	c-3.7,2.5-8.4,5.5-10.5,8.8c-0.6,1-0.9,1.9-0.9,2.7c0,0.2,0,0.4,0.1,0.5c-10.8-1.8-14.3-14.6-14.5-36.2c0-2.2,0-4.5,0.1-6.9
	c1.8-3.8,6.5-13.9,9.6-22.2c0.8-2.2,3.1-8.5,3.1-13c0-2.4-0.7-4.3-2.6-4.8c-0.7-0.2-1.3-0.3-1.8-0.3c-11.5,0.1-14,34.5-13.9,43.4
	l0.1,1.5c-4.5,9.4-10.3,22-19.6,24.4c-0.8,0.2-1.5,0.3-2.1,0.3c-2.4,0-3.5-1.4-3.5-3.4c0-5.3,6.9-15,14.1-15.1
	c1.4,0,2.8,0.3,4.1,1.1c0.4,0.2,0.7,0.3,1,0.3c0.4,0,0.6-0.2,0.6-0.5c0-0.3-0.2-0.7-0.8-1c-2.9-1.7-5.9-2.4-8.6-2.4
	c-7.1,0.1-13.1,5.1-16.2,11.5c-0.4,0.7-0.6,1.5-0.9,2.1c-6.1,5.6-11.5,9.5-15.1,9.5c-2.7,0-4.3-2.1-4.3-7.5c0-2.3,0.2-5.2,0.9-8.8
	v-0.1c0-1-2.1-1.5-3.9-1.5c-1.5,0-3,0.4-3.1,1.2c-0.5,3.3-0.6,6.2-0.6,8.5c0.1,8,2.7,11.3,6.5,11.9c0.5,0.1,1.1,0.1,1.7,0.1
	c5,0,10.8-3.8,17.5-10v0.3c0,3.5,2.2,5.8,5,6.5c1.5,0.4,2.9,0.5,4.4,0.5c12.2-0.1,19.4-14.7,23-21.7v3.5C801,66,802.5,85.2,821.3,85
	h0.7c1,0.7,2.4,1,4.1,1c0.7,0,1.5,0,2.4-0.2c6.1-1,10.8-4.8,10.7-9.6c0-1.9-0.8-3.9-2.6-5.9c8.3-5.3,12.6-8.9,20.1-15.8
	C857,54.5,857.1,54.3,857.1,54.1 M812.6,9c1-1.6,1.8-2.3,2.2-2.3c0.3,0,0.5,0.4,0.5,1.1c0,1.9-1,6.2-2.4,10.5
	c-2.2,6.8-5.9,14-6,14.3v-0.4C806.9,28.3,808.9,14.8,812.6,9 M826.5,82c-0.9,0-1.5-0.3-1.5-0.9c0-1.2,2.1-3.8,8.4-8.2
	c0.9,0.9,1.2,1.9,1.2,2.8C834.7,79.2,829.1,82,826.5,82"/>
</svg>
