<?xml version="1.0" encoding="utf-8"?>
<!-- Generator: Adobe Illustrator 25.4.1, SVG Export Plug-In . SVG Version: 6.00 Build 0)  -->
<svg version="1.1" id="Layer_1" xmlns="http://www.w3.org/2000/svg" xmlns:xlink="http://www.w3.org/1999/xlink" x="0px" y="0px"
	 viewBox="0 0 762.5 201.2" style="enable-background:new 0 0 762.5 201.2;" xml:space="preserve">
<style type="text/css">
	.st0{fill:#fff;}
	.st1{fill:#D3B27D;}
</style>
<path class="st0" d="M0,100.2V0h7.4v39.4c5.6-8.3,14.2-13.5,23.9-13.5C49.7,25.8,62.1,41,62.1,64c0,23.3-12.5,38-30.8,38
	c-10.3,0-19.1-5.9-23.9-13.4v11.6H0z M30.1,95C45.4,95,54.1,81.6,54.1,64s-8.7-31.1-24.1-31.1c-9.5,0-18.7,6.3-22.6,13.2V82
	C11.4,88.9,20.5,95,30.1,95"/>
<path class="st0" d="M126.3,100.2V89.5c-5.6,6.6-14.8,12.5-24.8,12.5c-14,0-21.7-6.9-21.7-23.3V27.6h7.4v49.3C87.3,91,94,95,104,95
	c8.8,0,17.8-5.6,22.4-12V27.6h7.4v72.6H126.3z"/>
<path class="st0" d="M151.5,63.9c0-21.2,13.1-38,33.3-38c12,0,18.8,5,24.4,12.3l-5.1,4.8c-5-7.2-11.3-10.1-18.8-10.1
	c-16.1,0-25.9,13.5-25.9,30.9c0,17.4,9.8,31.1,25.9,31.1c7.5,0,13.8-3,18.8-10.2l5.1,4.8c-5.6,7.5-12.4,12.5-24.4,12.5
	C164.6,102,151.5,85,151.5,63.9"/>
<polygon class="st0" points="272,100.2 244.5,65.7 231.7,78.4 231.7,100.2 224.3,100.2 224.3,0 231.7,0 231.7,69.1 272.2,27.6
	282.1,27.6 250.1,60.4 282,100.2 "/>
<path class="st0" d="M290.7,63.9c0-21,14-38,33-38c20.9,0,32.5,17.4,32.5,38.5v2.1h-57.5c0.7,15.8,10.7,28.8,26.9,28.8
	c8.7,0,16.7-3.5,22.5-10.1l3.8,5.1c-6.8,7.5-15.5,11.7-26.9,11.7C304.9,102,290.7,86.2,290.7,63.9 M323.6,32.6
	c-16.2,0-24.4,15-24.9,27.6h50C348.5,47.9,340.8,32.6,323.6,32.6"/>
<path class="st0" d="M375.3,86.2V34.6h-11.4v-6.9h11.4V7.8h7.5v19.8h14v6.9h-14V85c0,5.9,2.3,9.9,7.1,9.9c3.3,0,6.1-1.7,7.7-3.5
	l2.8,6c-2.7,2.7-6,4.5-11.7,4.5C379.7,102,375.3,96.2,375.3,86.2"/>
<rect x="447.1" class="st0" width="7.4" height="100.2"/>
<path class="st0" d="M474.1,10.2c0-3.3,2.7-5.9,5.7-5.9c3.1,0,5.7,2.6,5.7,5.9c0,3.3-2.6,6-5.7,6C476.8,16.2,474.1,13.5,474.1,10.2
	 M476.1,27.6h7.4v72.6h-7.4V27.6z"/>
<path class="st0" d="M499.2,90.4l4.4-5.7c4.4,5.9,12.5,10.7,22.2,10.7c11.5,0,18.4-6.3,18.4-14.7c0-19.8-43.4-8.6-43.4-34.7
	c0-11.1,9-20.1,24.5-20.1c11.8,0,19.7,4.8,24.6,10.7l-4.1,5.6c-4-5.7-11.4-9.6-20.5-9.6c-10.7,0-17.1,5.7-17.1,13.2
	c0,18.2,43.3,7.1,43.3,35c0,11.7-8.5,21.3-25.8,21.3C514.6,102,506,98.6,499.2,90.4"/>
<path class="st0" d="M570.6,86.2V34.6h-11.4v-6.9h11.4V7.8h7.5v19.8h14v6.9h-14V85c0,5.9,2.3,9.9,7.1,9.9c3.3,0,6.1-1.7,7.7-3.5
	l2.8,6c-2.7,2.7-6,4.5-11.7,4.5C575,102,570.6,96.2,570.6,86.2"/>
<path class="st1" d="M275.9,196c-7.6-0.2-12.2-20.2-12.3-31c0-3.1,0.3-5.4,1.1-6.3c0.5-0.5,1.5-0.7,2.8-0.7c2.9,0,6.8,0.9,6.8,2
	l-0.1,0.3c-0.8,1.8-1.1,4.5-1.1,7.4c0.1,8.6,2.9,19.7,5.3,19.7c0.3,0,0.5-0.2,0.8-0.5c5.8-7.6,8.7-36.9,18.5-37l0.4,0
	c6.3,0.4,10.6,26.7,17.3,26.6c1.1,0,2.3-0.7,3.6-2.3c2-2.7,11.1-22.4,12.1-29.5c0.1-0.5,0.4-0.7,0.9-0.7c1.6,0,5.1,2.4,5.1,4.9
	l-0.1,0.8c-0.5,1.6-7.6,15-8.3,16.9c-5.1,12.8-10.4,16.7-15.1,16.8c-1.9,0-3.7-0.6-5.3-1.6c-7.7-4.6-10.9-22.1-13.5-22.1
	c-0.2,0-0.2,0.1-0.4,0.2c-4.1,3.1-8.9,36-18.2,36.1L275.9,196z"/>
<path class="st1" d="M356.1,187.3c-5.4-0.9-9-5.5-9.1-16.7c0-3.3,0.2-7.3,0.9-11.9c0.1-1.2,2.1-1.8,4.3-1.8c2.6,0,5.4,0.8,5.4,2.2
	l0,0.2c-1,5.1-1.3,9.2-1.3,12.5c0.1,7.5,2.4,10.6,6.3,10.6c7.2-0.1,19.5-10.8,32.3-24.4c0.5-0.6,1.1-0.8,1.7-0.8
	c0.8,0,1.3,0.4,1.3,1c0,0.3-0.1,0.7-0.5,1.1c-16,17-28.4,28.1-38.9,28.2C357.7,187.5,356.9,187.5,356.1,187.3 M348.6,146.3
	c0-2.3,2.6-4.1,5.7-4.2c3.1,0,5.7,1.8,5.8,4.1c0,2.3-2.6,4.1-5.7,4.1C351.2,150.4,348.6,148.6,348.6,146.3"/>
<path class="st1" d="M392.5,189.2c-2.2-9.4-3.1-21.7-3.2-33.9c-0.1-11.5,0.3-21.9,1.3-30.9c-6.2,1.3-17.4,3.9-21,5.5
	c-2.9,2.3-9.9-0.4-5.4-2.8c3.6-2,18.4-5.1,27-6.4c2.4-19.3,6.8-35.3,10.2-35.3l0.1,0c1.8,0.1,8,3.4,8.1,5.5c0,0.3-0.1,0.5-0.3,0.7
	c-1.6,1.8-6.6,11.3-8.7,27.8c12.7-1.5,24.9-2.6,34.2-2.6c2.3,0,4.4,0,6.3,0.1c0.7,0.3,1,0.8,1,1.3c0,1.9-0.7,2.8-1.9,2.8l-0.2,0
	c-2.2-0.2-15.7-0.9-39.5,1.9c-0.6,5.3-1.5,17.1-1.4,30.6c0.1,10.7,0.7,22.1,2.5,31c1.3,6.7,3.8,11,6.4,13.9c0.2,0.2,0.3,0.5,0.3,0.7
	c0,0.3-0.1,0.5-0.5,0.5C407.4,199.6,394.7,198.4,392.5,189.2"/>
<path class="st1" d="M419.8,191.8c-0.6-3.8-1.4-16.6-1.5-31.9c-0.2-29.8,2.5-69,17.1-69.1c0.8,0,1.5,0.1,2.4,0.3
	c6.2,1.6,8.8,7.3,8.9,15c0.1,14.1-8.6,34.7-19.9,47.8c-0.1,2.8-0.2,5.7-0.2,8.5c0.1,7.2,0.6,14.7,1.2,21.6c0.3,3,0.8,4.2,1.6,4.2
	c3.1,0,9.2-18.4,9.5-19.1c4.6-10.6,9.8-21.1,16.9-21.1l0.2,0c8.5,0.2,12,23.9,23.9,26.1c0.5,0.1,1,0.2,1.5,0.2
	c5.2,0,11.5-5.1,23.3-17c0.6-0.6,1.4-0.9,2.1-0.9c0.7,0,1.3,0.3,1.3,0.9c0,0.3-0.2,0.7-0.7,1.2c-13.5,14.3-21.4,22-28.4,22.3l-0.6,0
	c-15.3,0.1-20.1-25.4-26.6-25.4c-1.3,0-2.7,1.1-4.3,3.8c-6.6,11.3-11,28.4-15.3,35.8c-1.6,2.6-3.7,3.9-5.8,3.9
	C423.3,198.9,420.5,196.3,419.8,191.8 M442,110.1l0.1-1.5c0-5.9-2.1-9.9-4.6-9.9c-1.1,0-2.3,0.8-3.4,2.4c-6.8,9.9-7.3,37-7.5,49
	C436.8,135.9,441.4,122.7,442,110.1"/>
<path class="st1" d="M545.2,190.4c-0.7-5-2.2-21.6-2.3-39.7c-0.2-28.4,2.7-61,16.8-61.1c0.8,0,1.8,0.1,2.7,0.4
	c5.5,1.4,7.8,7.2,7.8,14.9c0.1,16.6-10.1,41.8-18.9,48.5l-0.1,4.9c0.1,8.2,1.1,17.2,1.8,25c0.3,3,0.8,4.1,1.6,4.1
	c2.4,0,6.7-11.6,7.8-13.8c2.4-5.2,11.8-27.9,21-28.2l0.2,0c2.8,0,4,1,4,2.7c0.1,6.4-17.4,22.8-19,24.4c9.6,10.3,24.8,20.2,36.7,20.1
	c1.5,0,3.1-0.2,4.5-0.6l0.1,0c0.2,0,0.4,0.2,0.4,0.3v0.1c-0.8,0.9-5.1,4.4-12.1,4.5c-1.2,0-2.5-0.1-3.9-0.3
	c-7.3-1.2-17.4-6.7-29.3-18.7c-2.6,5.6-4,10.1-7.1,15.4c-1.6,2.8-3.9,4-6,4.1C548.7,197.3,545.8,194.8,545.2,190.4 M565.2,109.3
	l0.1-1.9c0-5.8-1.5-9.7-3.6-9.7c-0.8,0-1.9,0.7-3,2.4c-6.8,9.9-7.3,37-7.4,49C558.9,141.5,564.6,122,565.2,109.3 M581.9,150
	c0-0.2-0.1-0.3-0.2-0.3c-0.3,0-0.7,0.2-1.3,0.6c-3,2-8.3,11.7-9.8,14.4C573.7,161.8,581.9,151.8,581.9,150"/>
<path class="st1" d="M608.9,185.3c-5.3-0.9-9-5.5-9.1-16.7c0-3.4,0.2-7.3,0.9-11.9c0.1-1.2,2.1-1.8,4.3-1.8c2.6,0,5.4,0.8,5.4,2.2
	l0,0.2c-1,5.1-1.3,9.2-1.3,12.5c0.1,7.5,2.4,10.6,6.3,10.6c7.2-0.1,19.5-10.8,32.3-24.4c0.5-0.6,1.1-0.8,1.7-0.8
	c0.8,0,1.3,0.4,1.3,1c0,0.3-0.1,0.7-0.5,1.1c-16,17-28.4,28.1-38.9,28.2C610.5,185.5,609.7,185.5,608.9,185.3 M601.4,144.4
	c0-2.3,2.6-4.1,5.7-4.2c3.1,0,5.7,1.8,5.8,4.1c0,2.3-2.6,4.1-5.7,4.1C604,148.4,601.4,146.6,601.4,144.4"/>
<path class="st1" d="M681.8,156.4l0-5.1c-5,9.9-15.3,30.8-32.7,30.9c-2,0-4-0.2-6.2-0.8c-3.8-1-7-4.2-7-9.3c0-2.4,0.6-5.2,2.2-8.5
	c4.4-9,12.9-16.4,23.1-16.4c3.9,0,8.1,1,12.3,3.5c0.8,0.4,1.1,1,1.1,1.4c0,0.4-0.4,0.8-0.9,0.8c-0.4,0-0.8-0.2-1.4-0.4
	c-2-1.1-4-1.6-6-1.6c-10.4,0.1-20.2,13.9-20.1,21.6c0,2.9,1.6,4.9,5,4.9c0.8,0,1.8-0.1,3-0.4c13.3-3.3,21.4-21.4,27.9-34.8L682,140
	c-0.1-12.6,3.5-61.8,19.9-61.9c0.8,0,1.6,0.1,2.4,0.3c2.8,0.7,3.8,3.5,3.8,6.9c0.1,6.5-3.2,15.5-4.4,18.6
	c-4.5,11.7-11.2,26.2-13.7,31.6c-0.1,3.4-0.1,6.7-0.1,9.8c0.3,32.3,5.7,50.7,22.8,52c1.6,0.1,2.3,0.6,2.3,1.1c0,0.5-0.8,1-1.7,1.1
	c-0.8,0.1-1.7,0.1-2.5,0.1C684.1,200,682,172.5,681.8,156.4 M699.5,103.8c2.1-6.2,3.5-12.2,3.5-15c0-1-0.2-1.6-0.7-1.6
	c-0.5,0-1.6,1-3.1,3.4c-5.3,8.3-8.2,27.6-8.1,33l0,0.5C691.2,123.9,696.3,113.5,699.5,103.8"/>
<path class="st1" d="M710.5,196.5c0-1.2,0.4-2.5,1.3-3.9c3-4.6,9.7-9,15-12.6c-7.5-7-19.9-11.8-20-22.3l0-0.5
	c0.2-7.9,14.4-17.7,24.1-17.8c3.8,0,6.9,1.5,8.1,5.3c0.1,0.3,0.2,0.7,0.2,1c0,1.2-0.5,2.4-1.3,2.4c-0.3,0-0.7-0.2-1-0.6
	c-0.8-0.9-2.2-1.4-4.1-1.3c-6.4,0.1-17.2,5.8-17.1,13.4c0,0.8,0.2,1.5,0.4,2.4c2.4,7.6,8.9,9.8,15,15c12.8-8,16.9-11.3,28.1-21.7
	c0.6-0.6,1.3-0.8,1.9-0.8c0.8,0,1.4,0.4,1.4,0.9c0,0.3-0.2,0.7-0.6,1c-10.5,9.9-16.8,15-28.6,22.6c2.6,2.8,3.8,5.7,3.8,8.4
	c0.1,6.6-6.7,12.1-15.3,13.6c-1.2,0.2-2.4,0.3-3.4,0.3C713.7,201.3,710.6,199.5,710.5,196.5 M730.8,186c0-1.3-0.6-2.6-1.8-4
	c-9,6.2-12,9.9-12,11.6c0,0.9,0.9,1.3,2.1,1.3C723,194.9,730.9,190.9,730.8,186"/>
</svg>
