<?xml version="1.0" encoding="utf-8"?>
<!-- Generator: Adobe Illustrator 22.1.0, SVG Export Plug-In . SVG Version: 6.00 Build 0)  -->
<svg version="1.1" id="Layer_1" xmlns="http://www.w3.org/2000/svg" xmlns:xlink="http://www.w3.org/1999/xlink" x="0px" y="0px"
	 viewBox="0 0 484.1 77.3" style="enable-background:new 0 0 484.1 77.3;" xml:space="preserve">
<style type="text/css">
	.st0{fill:#FFFFFF;}
	.st1{fill:#D3B27C;}
</style>
<g>
	<path class="st0" d="M4.1,20.1h3.4v17c2.5-3.6,6.5-5.8,10.9-5.8c8.4,0,14,6.6,14,16.5c0,10.1-5.7,16.4-14,16.4
		c-4.7,0-8.7-2.5-10.9-5.8v5H4.1V20.1z M17.8,61.1c7,0,11-5.8,11-13.4c0-7.6-4-13.4-11-13.4c-4.4,0-8.5,2.7-10.3,5.7v15.5
		C9.3,58.5,13.4,61.1,17.8,61.1z"/>
	<path class="st0" d="M62.3,58.8c-2.6,2.9-6.8,5.4-11.3,5.4c-6.4,0-9.9-3-9.9-10.1V32h3.4v21.3c0,6.1,3.1,7.8,7.6,7.8
		c4,0,8.1-2.4,10.2-5.2V32h3.4v31.4h-3.4V58.8z"/>
	<path class="st0" d="M89.7,31.3c5.4,0,8.6,2.1,11.1,5.3l-2.3,2.1c-2.3-3.1-5.1-4.3-8.6-4.3c-7.3,0-11.8,5.8-11.8,13.4
		s4.5,13.4,11.8,13.4c3.4,0,6.2-1.3,8.6-4.4l2.3,2.1c-2.5,3.2-5.7,5.4-11.1,5.4c-9.2,0-15.3-7.3-15.3-16.5S80.5,31.3,89.7,31.3z"/>
	<path class="st0" d="M117.5,48.5l-5.8,5.5v9.4h-3.4V20.1h3.4V50L130.1,32h4.5l-14.6,14.2l14.5,17.2h-4.5L117.5,48.5z"/>
	<path class="st0" d="M153,31.3c9.5,0,14.8,7.6,14.8,16.6v0.9h-26.2c0.3,6.8,4.9,12.5,12.2,12.5c4,0,7.6-1.5,10.3-4.4l1.8,2.2
		c-3.1,3.2-7.1,5.1-12.3,5.1c-9.2,0-15.7-6.8-15.7-16.5C137.9,38.6,144.3,31.3,153,31.3z M141.6,46.1h22.8
		c-0.1-5.3-3.6-11.9-11.4-11.9C145.5,34.2,141.8,40.7,141.6,46.1z"/>
	<path class="st0" d="M177.1,57.4V35.1h-5.2V32h5.2v-8.6h3.4V32h6.4v3.1h-6.4v21.8c0,2.5,1,4.3,3.2,4.3c1.5,0,2.8-0.7,3.5-1.5
		l1.3,2.6c-1.2,1.2-2.7,1.9-5.3,1.9C179.1,64.2,177.1,61.6,177.1,57.4z"/>
	<path class="st0" d="M211.2,20.1h3.4v43.3h-3.4V20.1z"/>
	<path class="st0" d="M224.1,24.1c0-1.4,1.2-2.6,2.6-2.6c1.4,0,2.6,1.2,2.6,2.6c0,1.4-1.2,2.6-2.6,2.6
		C225.4,26.7,224.1,25.5,224.1,24.1z M225.1,32h3.4v31.4h-3.4V32z"/>
	<path class="st0" d="M238.2,56.7c2,2.5,5.6,4.6,10.1,4.6c5.3,0,8.4-2.6,8.4-6.2c0-4-4.3-5.2-8.8-6.4c-5.2-1.3-11-2.7-11-8.8
		c0-4.8,4-8.7,11.2-8.7c5.4,0,9,2.1,11.2,4.7l-1.9,2.3c-1.8-2.5-5.2-4.2-9.3-4.2c-4.9,0-7.9,2.4-7.9,5.6c0,3.6,4,4.5,8.4,5.6
		C254,46.8,260,48.3,260,55c0,5.1-4,9.2-11.8,9.2c-5.1,0-9-1.5-12.1-4.9L238.2,56.7z"/>
	<path class="st0" d="M269.4,57.4V35.1h-5.2V32h5.2v-8.6h3.4V32h6.4v3.1h-6.4v21.8c0,2.5,1,4.3,3.2,4.3c1.5,0,2.8-0.7,3.5-1.5
		l1.3,2.6c-1.2,1.2-2.7,1.9-5.3,1.9C271.4,64.2,269.4,61.6,269.4,57.4z"/>
</g>
<g>
	<path class="st1" d="M309.1,64.7c-0.9-5.5-1.2-12.5-1.2-19.6c0-6.6,0.2-12.7,0.6-17.8c-2.6,0.7-7.3,2.2-8.8,3.1
		c-1.2,1.3-4.1-0.3-2.3-1.6c1.5-1.1,7.7-2.9,11.2-3.6c1-11.2,2.9-20.4,4.3-20.4h0c0.7,0.1,3.3,2,3.3,3.2c0,0.2,0,0.3-0.1,0.4
		c-0.7,1-2.8,6.5-3.7,16c5.3-0.8,10.4-1.4,14.2-1.4c1,0,1.8,0,2.6,0.1c0.3,0.2,0.4,0.5,0.4,0.8c0,1.1-0.3,1.6-0.8,1.6h-0.1
		c-0.9-0.1-6.5-0.6-16.4,0.9c-0.3,3.1-0.7,9.9-0.7,17.7c0,6.2,0.2,12.7,0.9,17.9c0.5,3.9,1.6,6.4,2.6,8.1c0.1,0.1,0.1,0.3,0.1,0.4
		c0,0.2-0.1,0.3-0.2,0.3C315.2,70.7,310,70,309.1,64.7z"/>
	<path class="st1" d="M323.1,62.7c-0.5-1.2-0.7-3.4-0.7-5.7c0-3.8,0.5-8.2,1.3-10.3c0.2-0.5,0.8-0.7,1.4-0.7c1,0,2.2,0.4,2.2,0.9
		l0,0.1c-0.7,1.6-1.2,6.7-1.2,9.9c0,1.5,0.1,2.5,0.4,2.6c0.4-3,2.8-18.5,8.8-18.5c0.6,0,1.2,0.2,1.9,0.5c2.5,1.3,5.4,7.4,8.2,8.6
		c0.3,0.1,0.6,0.2,1,0.2c1.5,0,3.6-1.2,6.3-3.6c0.3-0.3,0.6-0.4,0.9-0.4c0.3,0,0.6,0.2,0.6,0.5c0,0.2-0.1,0.5-0.5,0.8
		c-4.2,3.8-7.5,5.3-9.7,5.3c-0.5,0-0.9-0.1-1.3-0.3c-2.4-1-4-4.5-6.9-7.5c-0.6-0.5-1.1-0.8-1.6-0.8c-2.6,0-4.6,6.7-5.7,12.3
		c-0.6,3.2-0.7,5.9-1,6.4c-0.5,0.8-1.2,1.1-2,1.1C324.3,64.2,323.4,63.7,323.1,62.7z"/>
	<path class="st1" d="M371.5,60.7c-2.1-1.6-2.6-5.6-2.6-9.1c0-1.7,0.1-3.3,0.2-4.4c0.1-0.4,0.1-0.8,0.1-1.1c0-0.8-0.1-1.1-0.4-1.1
		c-0.2,0-0.5,0.2-0.9,0.7c-2.1,2.5-4.8,7.4-9,8.7c-0.6,0.2-1.1,0.3-1.6,0.3c-2.2,0-3.4-1.7-3.4-3.8c0-0.3,0-0.7,0.1-1
		c0.3-1.9,1.2-4,3.5-5.5c1.5-1,3.1-1.4,4.6-1.4c2.2,0,4.2,0.8,5.1,1.7c0.8-1.2,2-1.8,3-1.8c1.6,0,2.9,1.3,2.9,3.6v0.2
		c0,1.2-0.4,3.7-0.4,6.1c0,2.4,0.3,4.8,1.6,5.9c0.4,0.3,1,0.5,1.5,0.5c4.3,0,11.3-10.7,12.9-12.5c0.2-0.2,0.4-0.3,0.6-0.3
		c0.3,0,0.6,0.3,0.6,0.6c0,0.2-0.1,0.3-0.2,0.5c-2.2,2.7-9.5,14.4-15.6,14.4C373.4,61.6,372.4,61.4,371.5,60.7z M359.7,51.9
		c3.4-1.1,4.7-3.8,6.8-6.4c-0.9-0.3-1.7-0.5-2.4-0.5c-3.8,0-6.3,3.5-6.3,5.6c0,0.8,0.4,1.4,1.3,1.4C359.3,52,359.5,52,359.7,51.9z"
		/>
	<path class="st1" d="M393.6,60.1c-1.7-3.1-3.5-8.8-3.5-12.3l0.1-1c0.1-0.6,1.3-0.9,2.4-0.9c1,0,1.9,0.3,1.9,0.8v0.1
		c-0.1,0.5-0.1,1-0.1,1.6c0,3,0.8,7,2.4,9.2v0c0-1.1,5.5-14.9,11.5-19.8c0.1-0.1,0.3-0.1,0.4-0.1c0.9,0,2.4,1.5,2.4,2.3
		c0,0.2-0.1,0.3-0.2,0.4c-6.2,4-11.3,14.5-13.3,20.9c-0.3,0.9-0.8,1.2-1.3,1.2C395.4,62.4,394.4,61.6,393.6,60.1z"/>
	<path class="st1" d="M424,59.3c-5.2-0.3-7.7-5-7.7-9.8c0-5,2.7-10.2,7.8-10.9l0.8-0.1c2.2,0,3.4,1.4,3.4,3.2c0,0.9-0.3,1.8-0.9,2.8
		c-1,1.6-3.6,3.5-7.2,5V50c0,4.8,2.7,6.8,6,6.8c1.6,0,3.5-0.5,5.2-1.4c4.1-2.2,6.7-5.6,9.8-8.9c0.2-0.3,0.4-0.3,0.7-0.3
		c0.3,0,0.5,0.3,0.5,0.6c0,0.2-0.1,0.4-0.3,0.7c-0.7,0.9-1.7,2-2.8,3.3c-6.2,6.8-10.9,8.6-14.6,8.6L424,59.3z M425.8,42.1
		c0-0.3-0.1-0.5-0.3-0.6c-0.2-0.1-0.4-0.1-0.6-0.1c-1.3,0-3.7,1.4-4.8,6.1C423.9,46.1,425.8,43.3,425.8,42.1z"/>
	<path class="st1" d="M444.9,66.3c-1.3-6.7-1.9-15.3-1.9-23.8c0-17.3,2.5-34.3,7.5-34.3c0.3,0,0.5,0.1,0.7,0.1
		c2.7,0.8,3.8,4.7,3.8,9.9c0,8.8-3.4,21.2-8.4,27.9c0,0.6-0.1,1.7-0.1,3.1c0,6.3,0.7,19.2,5.2,22.2c0.1,0.1,0.2,0.2,0.2,0.3
		c0,0.2-0.1,0.3-0.4,0.4C451.7,72.2,445.9,71.5,444.9,66.3z M453.2,18v-0.5c0-2.7-0.7-4.2-1.6-4.2c-0.5,0-1.1,0.5-1.7,1.6
		c-2.3,4.7-3.2,21.7-3.3,28.7C448.8,39.9,453,30.5,453.2,18z"/>
	<path class="st1" d="M460,70.3c0-0.7,0.2-1.4,0.6-2.3c1.3-2.7,4.1-5.2,6.3-7.2c-3.1-4.1-8.2-6.9-8.2-13v-0.3
		c0.1-4.6,6.1-10.1,10-10.1c1.6,0,2.9,0.9,3.4,3.1c0,0.2,0.1,0.4,0.1,0.6c0,0.7-0.2,1.4-0.5,1.4c-0.1,0-0.3-0.1-0.4-0.3
		c-0.3-0.5-0.9-0.8-1.7-0.8c-2.7,0-7.2,3.3-7.2,7.6c0,0.4,0.1,0.9,0.2,1.4c1,4.4,3.6,5.7,6.2,8.8c5.3-4.5,7-6.4,11.7-12.4
		c0.3-0.3,0.5-0.4,0.8-0.4c0.3,0,0.6,0.2,0.6,0.5c0,0.2-0.1,0.4-0.3,0.6c-4.4,5.6-7,8.6-12,12.9c1.1,1.6,1.6,3.3,1.6,4.9
		c0,3.8-2.8,7-6.4,7.8c-0.5,0.1-1,0.2-1.4,0.2C461.3,73.1,460,72,460,70.3z M468.5,64.3c0-0.7-0.2-1.5-0.7-2.3c-3.7,3.6-5,5.6-5,6.7
		c0,0.5,0.3,0.8,0.9,0.8C465.2,69.4,468.5,67.2,468.5,64.3z"/>
</g>
</svg>
