<svg xmlns="http://www.w3.org/2000/svg" width="21" height="21" viewBox="0 0 21 21"><g><g><path fill="#fff" d="M19.623 8.479a1.225 1.225 0 0 0-.913-.388h-5.587V2.329c0-.369-.125-.683-.376-.941A1.225 1.225 0 0 0 11.833 1H9.255c-.358 0-.662.13-.913.388-.25.258-.376.572-.376.941v5.762H2.379c-.358 0-.662.13-.913.388-.25.258-.376.572-.376.942v2.659c0 .37.125.683.376.941.25.259.555.388.913.388h5.587v5.762c0 .369.125.683.376.942.25.258.555.387.913.387h2.579c.358 0 .662-.13.913-.387.25-.259.376-.573.376-.942v-5.762h5.587c.358 0 .662-.13.913-.388.25-.258.376-.572.376-.941V9.42c0-.369-.125-.683-.376-.941z"/><path fill="none" stroke="#676767" stroke-miterlimit="20" d="M19.623 8.479a1.225 1.225 0 0 0-.913-.388h-5.587v0-5.762c0-.369-.125-.683-.376-.941A1.225 1.225 0 0 0 11.833 1H9.255c-.358 0-.662.13-.913.388-.25.258-.376.572-.376.941v5.762H2.379c-.358 0-.662.13-.913.388-.25.258-.376.572-.376.942v2.659c0 .37.125.683.376.941.25.259.555.388.913.388h5.587v5.762c0 .369.125.683.376.942.25.258.555.387.913.387h2.579c.358 0 .662-.13.913-.387.25-.259.376-.573.376-.942v-5.762 0h5.587c.358 0 .662-.13.913-.388.25-.258.376-.572.376-.941V9.42c0-.369-.125-.683-.376-.941z"/></g></g></svg>