<?xml version="1.0" encoding="UTF-8"?>
<svg width="111px" height="8px" viewBox="0 0 111 8" version="1.1" xmlns="http://www.w3.org/2000/svg" xmlns:xlink="http://www.w3.org/1999/xlink">
    <title>Page 1 Copy 2</title>
    <defs>
        <polygon id="path-1" points="0 0 318 0 318 758 0 758"></polygon>
        <filter x="-16.0%" y="-6.7%" width="132.1%" height="113.5%" filterUnits="objectBoundingBox" id="filter-2">
            <feOffset dx="0" dy="0" in="SourceAlpha" result="shadowOffsetOuter1"></feOffset>
            <feGaussianBlur stdDeviation="17" in="shadowOffsetOuter1" result="shadowBlurOuter1"></feGaussianBlur>
            <feComposite in="shadowBlurOuter1" in2="SourceAlpha" operator="out" result="shadowBlurOuter1"></feComposite>
            <feColorMatrix values="0 0 0 0 0   0 0 0 0 0   0 0 0 0 0  0 0 0 0.1 0" type="matrix" in="shadowBlurOuter1"></feColorMatrix>
        </filter>
    </defs>
    <g id="Desktop" stroke="none" stroke-width="1" fill="none" fill-rule="evenodd">
        <g id="DT---About-us" transform="translate(-1258.000000, -456.000000)">
            <g id="stay-in-touch" transform="translate(1156.000000, 140.000000)">
                <g id="Rectangle-6">
                    <use fill="black" fill-opacity="1" filter="url(#filter-2)" xlink:href="#path-1"></use>
                    <path stroke="#E1E1E1" stroke-width="1" d="M317.5,0.5 L317.5,757.5 L0.5,757.5 L0.5,0.5 L317.5,0.5 Z" stroke-linejoin="square" fill="#FFFFFF" fill-rule="evenodd"></path>
                </g>
                <path d="M208.45689,319.971677 C208.45645,319.971677 208.456009,319.971452 208.455569,319.971452 C208.455789,319.97134 208.475376,319.957539 208.475596,319.957315 C208.469434,319.96214 208.463052,319.966964 208.45689,319.971677 L208.45689,319.971677 Z M207.547327,319.897169 C207.550848,319.89672 207.554369,319.896383 207.557891,319.896047 C207.559651,319.898066 207.562292,319.899974 207.563833,319.901993 C207.558551,319.90031 207.553049,319.898964 207.547327,319.897169 L207.547327,319.897169 Z M206.490095,320.40037 C206.477111,320.390546 206.461926,320.381736 206.441679,320.375457 C206.327021,320.352064 206.211483,320.369077 206.095724,320.368976 C205.915264,320.368875 205.741406,320.354596 205.645895,320.27601 C205.727322,320.286441 205.81117,320.286846 205.895238,320.285429 C205.910203,320.283504 205.925168,320.282897 205.939912,320.281682 C206.131596,320.320367 206.338025,320.289378 206.53411,320.306594 C206.554137,320.321987 206.576804,320.336468 206.605854,320.347912 C206.680019,320.373229 206.751983,320.37647 206.820645,320.344469 C206.815584,320.371001 206.847714,320.387407 206.889308,320.404825 C206.755944,320.377584 206.622359,320.335355 206.490095,320.40037 L206.490095,320.40037 Z M204.70002,320.341182 C204.918553,320.338713 205.083167,320.315151 205.187262,320.42825 C205.038713,320.401659 204.866836,320.447213 204.70002,320.341182 L204.70002,320.341182 Z M200.07056,318.136385 C200.286672,318.018406 200.546138,318.0419 200.808686,318.05942 C200.805825,318.144385 200.681703,318.140132 200.606438,318.165753 C200.426419,318.163019 200.238256,318.200387 200.07056,318.136385 L200.07056,318.136385 Z M199.540184,317.802499 C199.502771,317.797435 199.447753,317.798549 199.447533,317.773738 C199.447313,317.751661 199.506072,317.74994 199.535122,317.736876 C199.538423,317.734952 199.541504,317.733028 199.544805,317.731104 C199.546786,317.730294 199.547666,317.72918 199.549207,317.728268 C199.553388,317.72604 199.55735,317.72361 199.561091,317.721281 C199.567253,317.728775 199.575836,317.736471 199.58992,317.744978 C199.722624,317.799258 199.878216,317.806651 200.03843,317.803714 C200.216249,317.807259 200.396269,317.796423 200.571887,317.814854 C200.547239,317.826095 200.528753,317.83926 200.524351,317.856374 C200.513347,317.84888 200.499043,317.846247 200.478796,317.852425 C200.285132,317.845741 200.091247,317.83926 199.897583,317.832677 C199.785125,317.809183 199.664305,317.802195 199.540184,317.802499 L199.540184,317.802499 Z M183.570352,321.172938 C183.394293,321.105511 183.225497,321.080543 183.076068,321.175888 C183.058462,321.168092 183.039755,321.161244 183.019949,321.155239 C183.078048,321.134589 183.159255,321.121736 183.107978,321.063686 C183.254987,321.064423 183.402216,321.064107 183.549225,321.066531 C183.609085,321.067479 183.697334,321.055679 183.713179,321.09624 C183.733426,321.14818 183.604243,321.138382 183.570352,321.172938 L183.570352,321.172938 Z M181.042371,321.014239 C181.025645,321.013711 181.006939,321.006951 180.983832,320.987409 C180.815256,320.914736 180.61741,320.95815 180.433208,320.947059 C180.387653,320.94801 180.341438,320.947798 180.297423,320.951812 C180.275416,320.944312 180.253849,320.936813 180.232062,320.929313 C180.4693,320.939031 180.699057,320.884948 180.939377,320.907659 C181.104652,320.923292 181.124238,320.958361 181.042371,321.014239 L181.042371,321.014239 Z M180.174622,320.978214 C180.172862,320.979328 180.172202,320.980341 180.170441,320.981252 C179.970835,320.993304 179.771228,321.010013 179.572062,320.980442 C179.351109,320.978113 179.129935,320.979733 178.908541,320.979328 C178.84516,320.979531 178.781999,320.978822 178.718618,320.982164 C178.647094,320.987632 178.576231,320.994924 178.503827,320.99219 C178.428782,321.000899 178.390929,320.980544 178.357258,320.957049 C178.420419,320.985607 178.499645,320.993506 178.565887,320.969606 C178.769235,320.896085 178.992169,320.907832 179.215323,320.9053 C179.261099,320.904895 179.302472,320.897705 179.336144,320.883021 C179.343626,320.886262 179.350448,320.890008 179.358371,320.893047 C179.413829,320.909148 179.468187,320.926567 179.529808,320.935681 C179.62532,320.945808 179.722372,320.942871 179.818764,320.944086 C179.86586,320.944289 179.912735,320.94439 179.959831,320.943985 C179.971935,320.944086 179.983599,320.943175 179.995703,320.942871 C180.041258,320.970923 180.125986,320.960897 180.199491,320.962011 C180.208074,320.962011 180.216656,320.961809 180.225239,320.961707 C180.207853,320.966062 180.190908,320.970923 180.174622,320.978214 L180.174622,320.978214 Z M177.2822,320.928694 C177.435371,320.872257 177.587442,320.873379 177.738632,320.931387 C177.586562,320.93049 177.434271,320.929592 177.2822,320.928694 L177.2822,320.928694 Z M176.887169,320.927782 C176.337206,321.028242 175.769857,320.997253 175.20669,320.985101 C175.076847,320.982164 174.948324,320.968087 174.817821,320.980847 C174.84643,320.943985 174.908711,320.931023 174.973412,320.919984 C175.050438,320.905199 175.14529,320.91006 175.212192,320.884236 C175.375926,320.881198 175.539881,320.87816 175.703615,320.875122 C176.033285,320.877552 176.363175,320.867932 176.693945,320.882515 C176.726295,320.886363 176.757986,320.889907 176.791437,320.892945 C176.823348,320.900338 176.874845,320.87816 176.88915,320.907933 C176.886509,320.912288 176.882107,320.917149 176.874405,320.92282 L176.887169,320.927782 Z M174.201396,321.477945 C174.201616,321.47772 174.201616,321.477496 174.201836,321.477271 C174.202496,321.477496 174.202716,321.47772 174.203376,321.477945 L174.201396,321.477945 Z M172.361364,321.114726 C172.220297,321.12779 172.082311,321.158778 171.933101,321.15098 C171.86818,321.151588 171.802818,321.151487 171.737896,321.151689 C171.492735,321.144094 171.251314,321.159285 171.012095,321.188146 C170.961258,321.190982 170.913502,321.197767 170.872568,321.21478 C170.861785,321.22511 170.854522,321.234933 170.84836,321.244554 C170.527494,321.191286 170.214109,321.205058 169.906887,321.275947 C169.879818,321.288302 169.860672,321.303087 169.849008,321.321113 C169.849668,321.325164 169.851869,321.327899 169.852529,321.331747 C169.791569,321.301467 169.716524,321.286986 169.633556,321.291644 C169.269555,321.311898 168.909075,321.307847 168.553877,321.255592 C168.357572,321.261162 168.164127,321.242427 167.968923,321.239085 C167.933931,321.234325 167.899159,321.236351 167.864388,321.238984 C167.981907,321.174678 167.87165,321.11108 167.850523,321.02571 C167.874731,321.088396 167.905101,321.131233 167.988069,321.136296 C168.241593,321.151588 168.490936,321.212249 168.749522,321.174171 C168.931743,321.147335 169.109342,321.147233 169.291122,321.162019 C169.339318,321.164247 169.387074,321.161715 169.43439,321.155436 C169.5858,321.142069 169.731709,321.160297 169.877617,321.176905 C170.031669,321.180146 170.177797,321.143892 170.332509,321.151385 L170.435283,321.151385 C170.57547,321.157259 170.715876,321.151993 170.856063,321.151385 C170.884452,321.151385 170.913062,321.151689 170.941671,321.151791 C170.945193,321.135689 170.959277,321.120093 170.984366,321.105308 C171.034762,321.10865 171.084719,321.109662 171.134896,321.111485 C171.320857,321.140043 171.50792,321.118473 171.694982,321.110979 C171.919897,321.068648 172.149213,321.076041 172.382931,321.092143 C172.388653,321.103282 172.37941,321.110776 172.361364,321.114726 L172.361364,321.114726 Z M167.879353,321.609732 C167.825215,321.612162 167.761173,321.598795 167.755892,321.569123 C167.755011,321.564667 167.756772,321.562135 167.757212,321.55849 C167.828516,321.52983 167.911263,321.512513 167.99115,321.491044 C168.006555,321.501475 168.023281,321.511804 168.025922,321.523045 C168.038466,321.578845 167.975085,321.605377 167.879353,321.609732 L167.879353,321.609732 Z M168.697805,320.788941 C168.698685,320.788638 168.699566,320.788435 168.700446,320.788232 C168.695164,320.799271 168.689222,320.809803 168.688122,320.822462 C168.761406,320.879173 168.875844,320.871577 168.98368,320.874717 C169.31555,320.884236 169.633556,320.854058 169.937477,320.783372 C169.947821,320.778916 169.956844,320.774156 169.965647,320.769498 C170.050815,320.823171 170.135323,320.831272 170.219171,320.814664 C170.212349,320.816487 170.205527,320.818411 170.198484,320.820234 C170.21609,320.832589 170.237217,320.839779 170.259444,320.845349 C170.230835,320.84707 170.202445,320.849399 170.174716,320.854463 C170.105393,320.873198 170.008781,320.883831 169.94408,320.906515 C169.812256,320.912794 169.680652,320.919073 169.548828,320.925453 C169.507674,320.913402 169.482366,320.903072 169.466521,320.893755 C169.37365,320.898313 169.280119,320.892135 169.186588,320.885856 C169.154677,320.887375 169.123427,320.890211 169.092836,320.895781 C168.933283,320.92363 168.755464,320.860742 168.597011,320.895477 C168.586008,320.828234 168.508982,320.785701 168.358452,320.77051 C168.469149,320.731319 168.582267,320.733648 168.697805,320.788941 L168.697805,320.788941 Z M170.378284,320.76089 C170.405133,320.792082 170.450248,320.810595 170.497344,320.827762 C170.466093,320.833933 170.434623,320.839768 170.402492,320.843919 C170.386647,320.788155 170.33559,320.789277 170.27617,320.8042 C170.310281,320.792531 170.344393,320.777496 170.378284,320.76089 L170.378284,320.76089 Z M167.00038,321.139739 C167.062221,321.150778 167.128903,321.150778 167.195585,321.151183 C167.128243,321.153006 167.060901,321.155031 166.994218,321.15098 C166.931718,321.150272 166.869877,321.140347 166.806936,321.146828 C166.785149,321.150272 166.766663,321.15493 166.752798,321.161715 C166.746416,321.160297 166.739814,321.15969 166.733652,321.158171 C166.646723,321.144195 166.558914,321.151892 166.471324,321.155841 C166.310671,321.184197 166.144516,321.20121 165.981001,321.223895 C165.816387,321.269162 165.636587,321.23473 165.46537,321.247693 C165.4964,321.227642 165.516427,321.20435 165.505643,321.171234 C165.511145,321.163335 165.492439,321.157462 165.474833,321.151385 C165.469331,321.143081 165.464049,321.134676 165.458768,321.126372 C165.46537,321.123638 165.474833,321.120498 165.488257,321.117258 C165.523689,321.11827 165.558681,321.117561 165.593673,321.116144 C165.618981,321.07837 165.715593,321.085965 165.770171,321.066927 C165.806483,321.054369 165.845436,321.043837 165.883729,321.032596 C166.000368,321.037153 166.115466,321.039381 166.227483,321.014368 C166.322335,320.993202 166.394959,321.001709 166.406403,321.065306 C166.456139,321.091839 166.571678,321.089915 166.552311,321.072496 C166.468463,320.996747 166.48717,320.96434 166.542408,320.947732 C166.623395,320.938719 166.705262,320.933048 166.790431,320.939428 C166.822121,320.939934 166.853812,320.939226 166.885062,320.936086 C166.888583,320.93558 166.892104,320.935175 166.895846,320.934668 C166.988937,321.002013 167.109537,320.985101 167.24092,320.93477 C167.136166,320.990873 166.905309,320.974366 166.901347,321.088294 C166.921374,321.112295 166.955265,321.128904 167.00038,321.139739 L167.00038,321.139739 Z M157.622401,316.818075 C157.621081,316.818749 157.61998,316.819534 157.61866,316.820207 C157.62042,316.819197 157.620861,316.817963 157.622401,316.816841 L157.622401,316.818075 Z M170.926046,323.201286 C170.926706,323.201959 170.927587,323.20252 170.928247,323.203194 L170.921645,323.203194 C170.923185,323.202408 170.924726,323.201959 170.926046,323.201286 L170.926046,323.201286 Z M174.798014,323.156424 C174.798674,323.159229 174.799555,323.16237 174.800215,323.1654 C174.795373,323.165288 174.790532,323.165288 174.78569,323.165175 C174.789651,323.162146 174.794053,323.159341 174.798014,323.156424 L174.798014,323.156424 Z M146.131719,323.180389 C146.241756,323.079295 146.400428,323.122268 146.605537,323.100725 C146.438061,323.209561 146.272346,323.168495 146.131719,323.180389 L146.131719,323.180389 Z M142.113843,322.934744 C142.079291,322.930288 142.04496,322.924719 142.010408,322.917934 C141.792096,322.886337 141.573123,322.876616 141.352609,322.913275 C141.26414,322.924314 141.17435,322.931605 141.085221,322.939808 C141.059912,322.945175 141.039445,322.953783 141.02206,322.964416 C140.961539,322.9631 140.901019,322.961581 140.840499,322.960163 C140.759512,322.909123 140.667962,322.893426 140.559466,322.937681 C140.497845,322.943757 140.436225,322.949935 140.374824,322.956011 C140.360299,322.95115 140.348856,322.95196 140.338512,322.955606 C140.324868,322.948213 140.311663,322.940517 140.298679,322.931808 C140.155631,322.909933 140.009063,322.869729 139.87988,322.918339 C139.855672,322.912262 139.832344,322.905275 139.810116,322.896768 C139.747396,322.88259 139.681814,322.879654 139.615572,322.878641 C139.617992,322.903249 139.565615,322.913478 139.537226,322.930187 C139.212618,322.928668 138.88801,322.927048 138.563402,322.92563 C138.460407,322.895958 138.423875,322.865678 138.570224,322.844209 C138.629864,322.835399 138.698747,322.849171 138.756406,322.828209 L138.758166,322.829221 C138.88889,322.833778 139.019834,322.838336 139.150777,322.842893 C139.404081,322.821525 139.657606,322.793372 139.88252,322.822436 C140.591816,322.913883 141.275364,322.827297 141.969034,322.817069 C141.974316,322.815854 141.977617,322.814841 141.982679,322.813525 C142.024933,322.853526 142.121325,322.863856 142.205833,322.880768 C142.214196,322.880363 142.222559,322.879856 142.230922,322.879552 C142.237744,322.923807 142.173042,322.927757 142.113843,322.934744 L142.113843,322.934744 Z M139.534145,316.752557 C139.539426,316.757157 139.540307,316.760523 139.538326,316.763216 C139.531284,316.760523 139.524241,316.756372 139.517199,316.752332 C139.522921,316.752557 139.528423,316.752445 139.534145,316.752557 L139.534145,316.752557 Z M130.947989,316.786983 L130.950189,316.784739 C130.95151,316.7853 130.95283,316.785524 130.954151,316.786197 C130.95195,316.786534 130.949969,316.786758 130.947989,316.786983 L130.947989,316.786983 Z M126.100436,316.833381 C126.100656,316.833269 126.100436,316.833269 126.100656,316.833044 C126.100876,316.833269 126.101317,316.833269 126.101537,316.833381 L126.100436,316.833381 Z M112.356425,316.442346 C112.286221,316.445992 112.22306,316.45541 112.180146,316.482347 C112.178606,316.481537 112.176625,316.481031 112.174864,316.480119 C112.159459,316.473031 112.134371,316.472119 112.113244,316.470195 C111.960293,316.456119 111.824508,316.481031 111.694665,316.520729 C111.691143,316.529033 111.688283,316.536729 111.685201,316.544324 C111.474591,316.520324 111.255619,316.452777 111.069217,316.557388 C110.980967,316.484069 110.848923,316.443257 110.694872,316.419358 C110.308424,316.378343 109.918234,316.356165 109.523202,316.354646 C109.418227,316.349684 109.313253,316.363356 109.189791,316.355558 C109.291245,316.334696 109.33438,316.293885 109.390718,316.260162 C109.413826,316.251048 109.437814,316.242541 109.461362,316.233832 C109.543009,316.228059 109.624436,316.225122 109.705863,316.223603 C109.714226,316.225831 109.722589,316.228059 109.730511,316.230996 C109.790811,316.264213 109.853972,316.262795 109.919554,316.235857 C110.131925,316.210945 110.344295,316.265529 110.556446,316.247503 C110.573172,316.248313 110.589677,316.249123 110.606403,316.249832 C110.618287,316.245478 110.630171,316.241224 110.642275,316.236971 C110.648657,316.24487 110.65746,316.253377 110.671984,316.262997 C110.823395,316.332975 111.011998,316.342089 111.196199,316.334494 C111.581767,316.318594 111.949729,316.353229 112.31219,316.417434 C112.395158,316.422092 112.489129,316.418953 112.513997,316.464423 C112.471963,316.442548 112.416065,316.440017 112.356425,316.442346 L112.356425,316.442346 Z M108.638288,316.764485 C108.625524,316.762864 108.612099,316.761042 108.598675,316.758712 C108.416234,316.749193 108.22477,316.771067 108.035728,316.727521 C108.117595,316.65005 108.266144,316.692178 108.348892,316.651772 C108.348892,316.651265 108.348672,316.650556 108.348672,316.649847 C108.350432,316.649949 108.351973,316.65005 108.353733,316.650151 C108.438241,316.663924 108.52297,316.677697 108.607698,316.691469 C108.654573,316.702305 108.702549,316.710407 108.751406,316.715977 C108.845597,316.760029 108.94353,316.757801 109.044323,316.724584 C109.047184,316.724483 109.049825,316.724281 109.052686,316.724078 C108.942869,316.834057 108.787058,316.78727 108.638288,316.764485 L108.638288,316.764485 Z M108.118475,322.882446 C108.066758,322.879304 108.015041,322.875265 107.963324,322.870104 C107.933173,322.866626 107.902583,322.86483 107.871553,322.865728 C107.840083,322.86685 107.806191,322.869431 107.775381,322.874255 C107.735768,322.868533 107.698575,322.858098 107.678769,322.824213 C107.835461,322.776527 108.026044,322.771142 108.118695,322.839922 C108.148845,322.862137 108.142023,322.874704 108.118475,322.882446 L108.118475,322.882446 Z M106.018096,323.463641 C106.007093,323.461173 105.996089,323.459041 105.985086,323.457133 C105.992788,323.454889 106.000271,323.45287 106.007533,323.449504 C106.017216,323.444903 106.032401,323.455787 106.018096,323.463641 L106.018096,323.463641 Z M104.19369,319.553553 C104.16574,319.524893 104.127668,319.502108 104.053283,319.510412 C103.98396,319.518108 103.986601,319.547679 104.017191,319.576338 C103.838492,319.54221 103.767848,319.452486 103.827488,319.335215 L103.827488,319.335215 L103.827708,319.335215 L103.827488,319.335215 C103.963493,319.329544 104.094877,319.339367 104.22472,319.35557 C104.236384,319.367216 104.247388,319.379065 104.25487,319.391825 C104.25531,319.447523 104.179825,319.496335 104.19369,319.553553 L104.19369,319.553553 Z M103.595751,319.700246 C103.59355,319.695422 103.591349,319.690036 103.588268,319.684089 C103.602353,319.684538 103.616218,319.684875 103.630082,319.685211 C103.618858,319.69026 103.606975,319.695309 103.595751,319.700246 L103.595751,319.700246 Z M212.919754,320.376774 C212.828864,320.369179 212.728951,320.38285 212.650825,320.344975 C212.523622,320.331 212.39642,320.316822 212.269218,320.302746 C212.119128,320.26639 211.951432,320.311556 211.801342,320.274491 C211.782416,320.276213 211.76415,320.275302 211.746324,320.271555 C211.627924,320.237528 211.500722,320.260415 211.377701,320.256162 C211.357234,320.261934 211.336327,320.26639 211.31542,320.270339 C211.288792,320.269023 211.262383,320.267808 211.235754,320.266491 C211.228492,320.257681 211.220129,320.249073 211.210886,320.240769 C211.083903,320.239553 210.956701,320.238338 210.829499,320.237224 C210.654541,320.225376 210.479582,320.213426 210.304624,320.201476 C210.288999,320.196109 210.272494,320.194893 210.254668,320.197628 C210.254448,320.197526 210.254007,320.197526 210.253787,320.197526 C210.02029,320.139904 209.769846,320.135448 209.518963,320.13241 C209.157383,320.096864 208.886913,319.91063 208.475596,319.957315 C208.203585,319.906883 207.91529,319.910731 207.635136,319.887641 C207.607847,319.877413 207.580558,319.867286 207.553269,319.857058 L207.094196,319.857362 C206.976237,319.843589 206.791156,319.877008 206.831649,319.752953 C207.047761,319.773004 207.278618,319.72004 207.484826,319.78941 C207.88558,319.776042 208.286773,319.788194 208.690387,319.791941 C208.464372,319.707179 208.172775,319.762168 207.948961,319.68338 C207.679371,319.617656 207.389535,319.585554 207.100358,319.561452 C206.681119,319.526311 206.23437,319.543426 205.911523,319.356279 C205.893917,319.357393 205.876311,319.358001 205.858705,319.358001 C205.81161,319.363672 205.764734,319.369242 205.717639,319.374812 C205.424061,319.340177 205.12014,319.320531 204.840207,319.266453 C204.588443,319.217641 204.341081,319.199413 204.080294,319.20316 C204.060047,319.187868 204.03804,319.18726 204.014492,319.201134 C203.927783,319.189184 203.840634,319.177133 203.753925,319.165183 C203.551678,319.149284 203.415893,319.050647 203.200001,319.045787 C203.112412,319.043862 203.055413,318.99181 203.133979,318.960315 C203.43702,318.8395 203.16523,318.848817 203.037367,318.824411 C203.04727,318.813575 203.043969,318.802436 203.026583,318.790688 C203.050351,318.717065 203.156207,318.753016 203.22663,318.752408 C203.488737,318.74937 203.751064,318.751193 204.102741,318.751193 C203.900934,318.666228 203.757226,318.657721 203.607137,318.65043 C203.501501,318.645265 203.31818,318.6879 203.314879,318.596554 C203.310478,318.488196 203.503702,318.51483 203.639487,318.512906 C204.485229,318.500753 205.33097,318.488398 206.176711,318.476043 C206.286088,318.476347 206.395244,318.476651 206.50462,318.476854 C206.542033,318.433004 206.703787,318.458726 206.693003,318.378521 L206.051049,318.378521 C206.006155,318.36647 205.959279,318.355532 205.927588,318.337 C205.895678,318.330721 205.863107,318.41275 205.829216,318.41113 C205.053678,318.350975 204.273518,318.373862 203.494899,318.376192 C203.458807,318.375179 203.422495,318.374774 203.386403,318.374369 C203.050791,318.371331 202.7143,318.365963 202.391672,318.375786 C202.213193,318.378622 202.02393,318.291935 201.90465,318.384901 C201.909052,318.393002 201.914774,318.399484 201.920936,318.406066 C201.918955,318.405864 201.916754,318.405762 201.914774,318.40556 C201.832026,318.379837 201.749059,318.354925 201.647825,318.357963 C201.468465,318.357254 201.288885,318.352798 201.109526,318.36252 C201.108425,318.362621 201.107545,318.362925 201.106885,318.363026 C201.055388,318.354621 201.005431,318.352494 200.957455,318.365659 C200.943591,318.363128 200.929506,318.360697 200.915641,318.358064 C200.825411,318.363735 200.764671,318.333253 200.696668,318.31148 C200.710533,318.297201 200.724398,318.282922 200.738262,318.268643 C200.776555,318.266516 200.814408,318.264289 200.85248,318.262162 C201.006972,318.257503 200.919823,318.141246 201.067052,318.133246 L201.068152,318.132739 C201.183911,318.077041 201.326298,318.102055 201.458782,318.097194 C201.478589,318.095269 201.498395,318.094561 201.518642,318.094864 C201.518642,318.094864 201.524144,318.097396 201.524364,318.097497 L201.524584,318.097497 C201.539989,318.097295 201.555614,318.097092 201.570799,318.09689 C201.623177,318.126055 201.695581,318.132334 201.741576,318.105498 C201.870099,318.030659 201.990919,318.070661 202.118341,318.096485 C202.148932,318.102662 202.180182,318.107219 202.212753,318.109346 C202.336874,318.131727 202.451312,318.076636 202.574993,318.096282 C202.59546,318.096586 202.616147,318.096687 202.636614,318.09689 C202.981468,318.075623 203.31818,318.156639 203.682842,318.123119 C203.630904,318.099523 203.592612,318.082206 203.554539,318.064889 C203.216947,318.078762 202.914566,317.953087 202.569932,317.996835 C202.440969,317.983366 202.312226,317.969898 202.183483,317.956429 C201.984977,317.972126 201.779649,317.940428 201.584224,317.978911 C201.630659,317.947011 201.698222,317.938707 201.785811,317.939314 C202.090832,317.94134 202.390132,317.901439 202.694713,317.895464 C202.691852,317.902148 202.690972,317.909035 202.693173,317.915718 C202.698234,317.917237 202.703296,317.918453 202.708578,317.920073 C203.296833,317.933441 203.885309,317.946707 204.473565,317.959973 C204.529023,317.991671 204.618593,317.963315 204.675812,317.991772 C204.996459,317.986607 205.311163,318.060838 205.645675,317.991671 C205.45135,317.969189 205.257025,317.946909 205.062701,317.924529 C204.840207,317.935162 204.625195,317.905996 204.407323,317.89111 C204.232805,317.879363 204.058067,317.867413 203.883548,317.855564 C203.752165,317.855868 203.620561,317.85607 203.489397,317.856273 L203.489177,317.856273 C202.856027,317.810297 202.222876,317.764219 201.589726,317.718141 C201.558695,317.718648 201.527885,317.719154 201.496855,317.719762 C201.465164,317.717331 201.435454,317.713888 201.411466,317.707204 C201.402443,317.704672 201.398702,317.703356 201.397382,317.702748 C201.395181,317.702647 201.391219,317.702242 201.381536,317.700925 C201.020836,317.531906 200.617442,317.609985 200.22153,317.64543 C200.184338,317.608972 200.185438,317.581225 200.28095,317.577579 C200.52105,317.568262 200.76137,317.559553 201.00169,317.550641 C201.146718,317.604314 201.315294,317.568363 201.470226,317.584263 C201.457902,317.588516 201.448659,317.591858 201.438095,317.595605 C201.574981,317.595909 201.710986,317.601073 201.84479,317.62396 C201.878682,317.627809 201.913233,317.629935 201.948005,317.629328 C202.119662,317.630543 202.291539,317.630543 202.461435,317.645733 C202.496867,317.645733 202.531859,317.6431 202.56575,317.637733 C202.582256,317.632366 202.599862,317.629226 202.617467,317.62629 C202.821035,317.647658 203.024383,317.638239 203.22795,317.614239 C203.271525,317.613935 203.31554,317.613631 203.359114,317.613226 C203.501501,317.675 203.668097,317.642594 203.825229,317.646442 C204.213438,317.657886 204.601207,317.669329 204.989416,317.680874 L204.989416,317.680773 C205.359579,317.722395 205.735905,317.716015 206.110469,317.722192 C206.450702,317.712673 206.450702,317.712673 206.499118,317.65262 C206.062933,317.63986 205.621687,317.68057 205.191003,317.615758 C205.118379,317.616365 205.046415,317.616365 204.991617,317.58487 C204.796852,317.583351 204.601867,317.581731 204.407103,317.580111 C204.341081,317.580414 204.275279,317.580617 204.209257,317.580921 C204.192091,317.577275 204.174045,317.575756 204.155119,317.576465 L204.155339,317.576465 C203.611758,317.509829 203.059814,317.507703 202.50633,317.513273 C202.486964,317.510336 202.466937,317.508716 202.446691,317.508716 C202.095674,317.4995 201.738275,317.544565 201.39386,317.475499 L200.406172,317.413522 C199.899343,317.35833 199.384372,317.364001 198.871381,317.355697 C198.559538,317.361469 198.256057,317.335747 197.949715,317.304353 C197.719518,317.280656 197.464233,317.239845 197.254283,317.348001 C197.256044,317.356102 197.259125,317.362786 197.263306,317.368963 C197.260225,317.368862 197.257144,317.368761 197.254283,317.368558 C197.21423,317.369875 197.174177,317.371191 197.134344,317.372508 C197.090549,317.37271 197.046754,317.372913 197.00318,317.373115 C196.682313,317.349418 196.362107,317.308303 196.04036,317.305265 C194.47674,317.290378 192.924343,317.197109 191.368426,317.12865 C191.000023,317.117004 190.631621,317.105257 190.263218,317.093611 C190.070654,317.006924 190.215682,316.987987 190.347286,317.001962 C190.819783,317.052496 191.286999,316.972391 191.756855,316.99619 C191.760596,317.004798 191.765658,317.013102 191.77226,317.021203 L192.959335,317.021203 C192.958014,317.004393 192.956914,316.987481 192.955594,316.97067 C192.694807,316.952137 192.435121,316.924795 192.167952,316.953353 C192.008178,316.896135 191.827498,316.884084 191.640216,316.886515 C191.460856,316.7657 191.195668,316.864843 190.988359,316.816335 C190.954688,316.814917 190.920797,316.814816 190.887126,316.81755 C190.724492,316.843576 190.551514,316.829702 190.38822,316.853501 C190.36049,316.861299 190.339363,316.872539 190.322858,316.886413 C190.318897,316.881451 190.315596,316.876692 190.308993,316.87102 C190.214362,316.83031 190.102785,316.841247 189.994069,316.842057 C189.963698,316.84388 189.934209,316.847222 189.905379,316.852994 C189.809207,316.886413 189.711054,316.86697 189.614002,316.856539 C189.568227,316.854412 189.522892,316.857248 189.479317,316.864944 C189.358497,316.821297 189.207967,316.847121 189.072402,316.838108 C188.521779,316.772384 187.970495,316.837905 187.420973,316.843273 C186.853404,316.848842 186.294418,316.780384 185.72795,316.810259 C185.254352,316.86383 184.774592,316.825449 184.298574,316.839627 C184.183916,316.84307 184.040648,316.822411 183.977267,316.89016 C183.976167,316.890363 183.975067,316.890667 183.973966,316.890768 C183.973526,316.890667 183.973306,316.890363 183.972646,316.89016 C183.777441,316.841652 183.558248,316.876286 183.359962,316.841146 C183.29482,316.840336 183.224837,316.83426 183.165417,316.848032 C182.84301,316.922769 182.528085,316.95477 182.221963,316.82636 C182.190273,316.812993 182.138776,316.814917 182.094761,316.816132 C181.263545,316.838715 180.434089,316.78484 179.601992,316.798916 C179.280685,316.804284 178.962239,316.754763 178.629929,316.787777 C178.129702,316.837399 177.608349,316.803879 177.118466,316.780992 C176.635405,316.75851 176.149704,316.764586 175.668183,316.737446 C175.529757,316.729648 175.381648,316.730964 175.244983,316.747573 C174.435774,316.846513 173.629645,316.819474 172.823297,316.74018 C172.537202,316.69714 172.243844,316.702508 171.950267,316.698862 C171.473368,316.692988 170.993609,316.725496 170.519571,316.671924 C170.420758,316.660683 170.316663,316.672026 170.239198,316.704229 C170.049935,316.782916 169.857371,316.763978 169.658645,316.722762 C169.621672,316.721445 169.5847,316.72023 169.547508,316.719116 C169.077211,316.667063 168.597232,316.681849 168.122094,316.670101 C167.883754,316.664228 167.658399,316.611365 167.412357,316.63567 C166.943602,316.682051 166.463622,316.676886 165.992885,316.67162 C165.387464,316.664937 164.782703,316.61177 164.175081,316.632935 C163.763324,316.647316 163.349366,316.657443 162.93937,316.659063 C162.27805,316.661595 161.615629,316.644885 160.952989,316.652278 C160.910075,316.65643 160.875963,316.665544 160.849995,316.679013 C160.146861,316.669595 159.443947,316.660177 158.740813,316.65086 C158.366249,316.672633 157.991464,316.675469 157.616679,316.651569 C157.596653,316.651569 157.576846,316.650151 157.55748,316.647316 C157.344889,316.606707 157.13846,316.639012 156.931151,316.661899 C156.913105,316.666152 156.89858,316.672329 156.886916,316.679621 C156.80725,316.670912 156.727363,316.656835 156.647917,316.657443 C155.902529,316.663215 155.157361,316.671924 154.412193,316.679722 C154.399429,316.671013 154.381603,316.663519 154.351453,316.658557 C154.147445,316.66281 153.942997,316.679114 153.73987,316.652886 C153.286739,316.651569 152.833608,316.65005 152.380478,316.648632 C151.987427,316.648835 151.594156,316.649037 151.201105,316.649139 C150.900705,316.683165 150.595244,316.670608 150.291763,316.677697 L150.291983,316.677697 C150.203734,316.646506 150.10338,316.652987 150.006328,316.654101 C149.189196,316.662405 148.372284,316.677089 147.555373,316.679418 C146.527851,316.682456 145.500329,316.682051 144.472807,316.681545 C144.216862,316.666354 143.960917,316.652683 143.701671,316.665342 C143.614522,316.669595 143.523852,316.665949 143.445506,316.68114 L143.075122,316.68114 C142.835023,316.657949 142.595143,316.652582 142.355923,316.684988 C141.897071,316.683266 141.438218,316.681444 140.979585,316.679722 C140.521173,316.673443 140.063861,316.712128 139.605228,316.686811 C139.386035,316.715875 139.166842,316.687824 138.94765,316.686203 C138.833652,316.712736 138.717233,316.700786 138.597953,316.699065 C137.768717,316.687216 136.939702,316.685494 136.111786,316.719926 C136.111786,316.719926 136.111566,316.719926 136.111566,316.719825 L136.097922,316.727116 L136.111566,316.734306 C136.111346,316.734205 136.110906,316.734205 136.110686,316.734205 C135.989646,316.684279 135.842857,316.685191 135.706852,316.692381 C134.749753,316.743218 133.789354,316.708179 132.833136,316.705951 C131.026995,316.701698 129.221074,316.647316 127.414934,316.613795 C127.195961,316.614808 126.976988,316.61572 126.758235,316.616732 C126.541023,316.604985 126.323811,316.593238 126.106818,316.58149 C126.065445,316.572477 126.038816,316.55992 126.031333,316.542502 C125.909853,316.546755 125.784411,316.531058 125.667112,316.55749 C125.437796,316.574604 125.224985,316.543514 125.017676,316.496221 C124.914902,316.4626 124.800244,316.458245 124.682945,316.459258 C124.606359,316.460169 124.529114,316.457638 124.454509,316.471106 C124.441524,316.475157 124.42788,316.478094 124.413795,316.480727 C124.42898,316.465334 124.45693,316.460878 124.489721,316.460574 C124.478717,316.455106 124.469034,316.448827 124.462211,316.440118 C124.473655,316.437688 124.485319,316.436168 124.496983,316.433941 C124.719257,316.408117 124.943291,316.396369 125.164905,316.406496 C125.225865,316.411256 125.286386,316.417434 125.345805,316.42513 C125.576442,316.455511 125.798276,316.502804 126.040136,316.506855 C126.324691,316.497943 126.609246,316.489031 126.8938,316.480221 C126.8938,316.480221 126.89402,316.480221 126.89402,316.480119 C126.939135,316.46341 126.985351,316.457233 127.032006,316.45622 C126.985791,316.462397 126.939795,316.470094 126.89402,316.480119 C127.002516,316.477081 127.111232,316.473942 127.219729,316.470701 L127.219729,316.470701 L127.219729,316.47141 C127.22259,316.471106 127.225891,316.471005 127.228752,316.470701 C127.512206,316.464727 127.801822,316.512728 128.078234,316.444473 L128.078674,316.444371 L128.267277,316.442548 C128.376433,316.441333 128.48559,316.440118 128.594746,316.438903 C128.616533,316.439409 128.638541,316.440017 128.660328,316.440523 C130.23077,316.462802 131.799012,316.445688 133.432175,316.367406 L133.432175,316.367305 C133.334683,316.344114 133.274382,316.329835 133.222445,316.31748 C133.20616,316.315455 133.190315,316.312518 133.17623,316.306442 C132.090169,316.302189 131.003887,316.2951 129.917826,316.294391 C128.821861,316.293682 127.725677,316.299353 126.629712,316.30229 C126.302023,316.291555 125.974334,316.28072 125.646645,316.269985 C125.63058,316.265023 125.613414,316.263504 125.594928,316.265225 C125.388059,316.209831 125.18075,316.200818 124.973441,316.264516 C124.956056,316.261985 124.93999,316.263402 124.925465,316.268972 C124.719037,316.195754 124.490161,316.232211 124.268987,316.231806 C124.203845,316.214287 124.138484,316.202742 124.071802,316.229578 C124.032408,316.229781 123.993015,316.230085 123.953622,316.230287 C123.838964,316.195552 123.724526,316.197678 123.610308,316.231097 L123.610088,316.231097 L123.608768,316.230591 C123.453176,316.21773 123.297364,316.206084 123.141772,316.207096 C123.041199,316.18907 122.930062,316.206793 122.826407,316.199603 L122.663553,316.199603 C122.449642,316.205881 122.235951,316.202641 122.02226,316.197881 C121.81099,316.187653 121.599279,316.181171 121.386688,316.186235 C121.309663,316.185526 121.232637,316.184108 121.155612,316.18502 C121.142847,316.185425 121.130963,316.187957 121.118639,316.18907 C121.115558,316.187248 121.113578,316.185425 121.109836,316.183703 C120.943241,316.141778 120.763881,316.21692 120.598166,316.168209 C120.237466,316.118384 119.866863,316.161525 119.501321,316.133068 C118.795767,316.078281 118.073486,316.155854 117.370352,316.065015 C117.30235,316.056205 117.24381,316.074737 117.191873,316.09732 C116.147626,316.123954 115.102498,315.989063 114.058691,316.102181 C114.052529,316.11008 114.046367,316.11808 114.039985,316.126081 C113.692709,316.129524 113.345434,316.137524 112.998158,316.135398 C112.271697,316.130942 111.548976,316.101472 110.834178,316.029571 C110.620047,316.019646 110.405696,316.009924 110.191565,316 C109.838347,316.044052 109.462902,315.970227 109.117607,316.056306 C109.117167,316.056407 109.116727,316.056407 109.116287,316.056508 C108.679002,316.050837 108.251399,316.093674 107.822477,316.129119 C107.629472,316.106131 107.421723,316.153727 107.235982,316.095396 C107.14047,316.045268 107.121323,316.093978 107.095575,316.126891 C107.053101,316.181475 107.036815,316.244566 106.912914,316.270086 C106.886725,316.291454 106.860317,316.312822 106.834128,316.33419 L106.832587,316.334392 C106.743678,316.338241 106.645085,316.334696 106.646405,316.404674 C106.820263,316.416421 106.994121,316.428269 107.168199,316.440219 C107.279996,316.467967 107.495888,316.427966 107.505131,316.496728 C107.522077,316.625543 107.688452,316.596175 107.816315,316.616023 C107.884977,316.671114 107.909186,316.716989 107.751613,316.743319 C107.598222,316.768839 107.660503,316.799727 107.753594,316.827373 C107.840963,316.841753 107.894661,316.893907 108.015481,316.87416 C108.275827,316.831323 108.528251,316.8694 108.837894,316.911731 C108.655674,316.932491 108.516808,316.911528 108.406551,316.956391 C108.167772,316.9651 107.92371,316.94758 107.691753,316.993861 C107.684271,316.994974 107.676788,316.995886 107.669306,316.996899 C107.667105,316.990417 107.666445,316.984848 107.662043,316.977455 C107.563451,316.982113 107.458916,316.959631 107.366485,316.994569 L107.366045,316.994569 C107.2307,316.994772 107.091393,316.980594 106.968153,317.024545 L106.967932,317.024545 C106.925018,317.026976 106.866699,317.040039 106.84139,317.030115 C106.686239,316.968341 106.597989,316.978771 106.437556,317.053711 C106.301771,317.117106 106.133415,317.203084 105.906299,317.202071 C105.60656,317.200653 105.468794,317.299492 105.394629,317.436004 C104.919271,317.52421 104.840925,317.58487 104.931815,317.816069 C104.952062,317.867008 104.896824,317.888781 104.854569,317.91987 C104.634056,317.977493 104.414203,318.036938 104.155837,317.990962 C103.970095,317.934352 103.766748,317.962809 103.570442,317.957036 L103.56428,317.956125 C103.456665,317.921693 103.316918,317.896781 103.255518,317.962606 C103.187075,318.035622 103.269602,318.106004 103.414851,318.143778 C103.530169,318.173652 103.647468,318.201198 103.763887,318.229756 C103.80306,318.234009 103.842233,318.238262 103.881406,318.242516 C103.994743,318.272998 103.912216,318.344393 103.987921,318.382673 C104.001126,318.421155 104.209975,318.433814 104.064067,318.493867 C104.053723,318.4885 104.042059,318.483537 104.028415,318.479284 C103.997604,318.471993 103.965034,318.468144 103.931362,318.468144 C103.915297,318.468752 103.900112,318.469967 103.885367,318.471486 C103.884707,318.471182 103.883827,318.470879 103.883166,318.470575 C103.821326,318.471486 103.759485,318.472499 103.697645,318.473512 C103.638885,318.457612 103.572643,318.451131 103.512563,318.437156 C103.483073,318.433915 103.453583,318.432497 103.423654,318.433409 C103.304594,318.444852 103.191916,318.425409 103.077478,318.414978 C103.048649,318.411636 103.019379,318.409509 102.989889,318.408902 C102.915284,318.409003 102.839139,318.405053 102.777739,318.435029 C102.666602,318.454473 102.496485,318.401408 102.455331,318.507437 C102.551724,318.516956 102.599039,318.581263 102.712597,318.571541 C102.887115,318.562426 103.061853,318.553211 103.236371,318.543995 C103.367535,318.569515 103.498919,318.595035 103.630082,318.620555 C103.725814,318.659443 103.840472,318.688001 103.889769,318.752307 C103.672116,318.806891 103.452483,318.796258 103.23175,318.758687 C102.93311,318.744914 102.634471,318.728407 102.335392,318.718989 C102.233278,318.715749 102.084508,318.67676 102.062941,318.780663 C102.316685,318.820462 102.512771,318.957176 102.814711,318.912313 C103.045788,318.878084 103.265641,318.898338 103.487475,318.92882 C103.495617,318.938846 103.499579,318.949378 103.499139,318.960315 C103.506621,319.042748 103.587388,319.090548 103.74232,319.10351 C103.769389,319.224528 103.610276,319.236072 103.44236,319.253997 C103.285448,319.270808 103.069336,319.264023 103.11137,319.405901 C103.20116,319.413598 103.221626,319.448637 103.248915,319.488639 C103.288309,319.545957 103.338045,319.512741 103.377878,319.483677 C103.586728,319.472739 103.639985,319.555781 103.726254,319.626568 C103.590909,319.665152 103.445881,319.62596 103.342667,319.678216 L103.342447,319.678216 C103.256178,319.710622 103.157145,319.721964 103.054371,319.726926 C102.941033,319.757206 102.765855,319.776143 102.972503,319.862526 C102.99143,319.870527 102.972724,319.903439 102.971403,319.924807 C102.924968,319.921769 102.878532,319.918832 102.832317,319.915794 C102.767175,319.963796 102.453791,319.925719 102.647896,320.063445 C102.728002,320.033166 102.762554,319.954581 102.909563,319.994987 C103.107188,320.138284 103.434657,320.11084 103.702046,320.162285 C103.722293,320.194995 103.813183,320.204413 103.817805,320.251199 C103.720752,320.251706 103.639765,320.260921 103.561199,320.275302 C103.366875,320.160259 103.105428,320.233578 102.87039,320.193273 C102.959299,320.338899 102.959299,320.338899 103.380299,320.439257 L103.406708,320.438447 L103.432016,320.442194 C103.471409,320.464878 103.518065,320.461942 103.566481,320.453131 C103.571543,320.448777 103.573303,320.444118 103.576164,320.439561 C103.728455,320.484423 103.723173,320.54397 103.626121,320.612125 C103.603893,320.605846 103.580126,320.60382 103.553717,320.610099 C103.369516,320.662759 103.224267,320.759067 102.985268,320.750155 L102.985268,320.750054 C102.861367,320.615568 102.732184,320.593288 102.564928,320.686153 C102.491423,320.727167 102.411757,320.719774 102.328349,320.724129 C102.320647,320.732939 102.315145,320.742256 102.312724,320.751978 L102.312724,320.751978 C102.234598,320.766763 102.034111,320.760687 102.112017,320.805347 C102.218973,320.866716 101.998459,321.020545 102.320867,320.999785 L102.344635,321.003329 L102.369063,321.00181 L102.369063,321.00181 C102.559206,321.031685 102.712377,321.090725 102.842,321.168196 C102.670563,321.151689 102.486142,321.184501 102.324828,321.130321 C102.073284,321.145613 102.196305,321.218527 102.242081,321.279492 C102.24032,321.352102 102.139086,321.336203 102.056999,321.337114 C102.038953,321.342076 102.020027,321.345317 102,321.346836 C102.023108,321.365064 102.046215,321.383496 102.069103,321.402028 C102.216332,321.40061 102.307002,321.471904 102.444548,321.483044 L102.444548,321.482942 L102.444548,321.483044 C102.468316,321.493474 102.491644,321.504006 102.515411,321.514437 C102.714138,321.544818 102.637552,321.692672 102.847062,321.724673 C102.999572,321.747965 103.035004,321.823917 102.978666,321.890857 C102.87215,322.017342 103.035664,321.995873 103.165728,321.998405 C103.169689,321.996582 103.174311,321.995873 103.178272,321.994253 C103.177832,321.994354 103.177392,321.994557 103.177172,321.994759 C103.17321,321.995873 103.170129,321.997696 103.165728,321.998405 C103.165728,321.998405 103.167488,321.998911 103.167488,321.99881 L103.167488,321.998911 C103.167928,322.009342 103.17167,322.019267 103.178712,322.02909 C103.387562,322.057445 103.507942,322.185045 103.754203,322.171374 C103.801739,322.22768 103.849055,322.283985 103.896811,322.34019 C104.046901,322.38009 104.261472,322.353355 104.388454,322.477005 C104.095097,322.462828 103.843553,322.464448 103.628762,322.377559 C103.608295,322.375736 103.587608,322.374926 103.566701,322.375128 C103.475371,322.354976 103.38404,322.334823 103.29249,322.314569 C103.1435,322.299581 102.994511,322.284593 102.845301,322.269605 C102.806128,322.280441 102.766735,322.291277 102.727562,322.302214 C102.806128,322.316594 102.884914,322.330873 102.963921,322.345152 C103.038746,322.361659 103.074617,322.412193 103.169909,322.411079 C103.259259,322.433156 103.348829,322.455334 103.437958,322.477512 C103.627221,322.470018 103.783913,322.523995 103.95359,322.55316 C104.107201,322.575946 104.260812,322.598934 104.414203,322.621821 C104.693036,322.521665 104.755096,322.527336 104.871515,322.69747 C104.85655,322.698381 104.841585,322.700001 104.8264,322.700913 C104.689515,322.658076 104.55593,322.645012 104.415744,322.651898 C104.310328,322.697773 104.205574,322.684608 104.089595,322.659797 C104.031276,322.647341 103.92278,322.605415 103.904734,322.688862 C103.814504,322.701723 103.724494,322.714584 103.634044,322.727445 L103.634264,322.727445 L103.634044,322.727445 C103.633823,322.727445 103.633603,322.727445 103.633383,322.727344 C103.610276,322.716711 103.588929,322.704457 103.569782,322.689773 C103.549315,322.677418 103.526428,322.666177 103.500239,322.657063 C103.427615,322.638024 103.35433,322.619492 103.275764,322.607947 C103.127655,322.577769 102.99143,322.661012 102.84266,322.620808 C102.7806,322.613922 102.718539,322.606934 102.656478,322.600251 C102.577912,322.591744 102.482841,322.557515 102.427602,322.607846 C102.369503,322.661012 102.505068,322.677317 102.534998,322.715698 C103.027082,322.789119 103.518945,322.86264 104.011029,322.93596 C104.300645,322.977784 104.590041,323.019608 104.879658,323.061433 C104.987274,323.063661 105.095109,323.065787 105.202945,323.068015 L105.229794,323.072674 L105.257964,323.070243 C105.528654,323.134853 105.833675,323.084218 106.106566,323.141132 C106.176989,323.1625 106.247413,323.183868 106.317836,323.205337 C106.442178,323.226604 106.548253,323.273795 106.666432,323.291517 C106.550674,323.299619 106.434915,323.336076 106.309914,323.33476 C106.205379,323.324734 106.101064,323.314809 105.996529,323.304885 C105.771394,323.234503 105.519631,323.21678 105.266106,323.201995 C104.953822,323.234604 104.667507,323.099206 104.305047,323.155512 C104.480885,323.222451 104.67609,323.212628 104.801092,323.278454 C105.135383,323.351165 105.489921,323.362102 105.844239,323.373242 C105.861184,323.371014 105.87681,323.36828 105.891774,323.364938 C105.93931,323.379217 105.996969,323.37628 106.051548,323.378913 C105.895956,323.439979 105.713075,323.419016 105.550661,323.407978 C105.255543,323.388129 104.965706,323.346 104.673889,323.313189 L104.673669,323.313189 L104.478024,323.313189 L104.478024,323.313189 C104.065387,323.277846 103.663093,323.231059 103.301513,323.108219 C103.192137,323.071155 103.013437,322.993987 102.917925,323.132828 C103.003094,323.15612 103.088482,323.179311 103.17387,323.202501 C103.397685,323.263668 103.606314,323.342254 103.861159,323.367267 C103.975377,323.354406 104.082553,323.371419 104.189948,323.387015 C104.263233,323.391977 104.338938,323.405345 104.401439,323.37466 C104.40562,323.383673 104.414643,323.393395 104.430488,323.403927 C104.749154,323.501551 105.114476,323.494766 105.459771,323.532438 C105.543399,323.529602 105.630548,323.533856 105.69745,323.498513 C105.706693,323.491322 105.717477,323.48717 105.72804,323.482715 L105.753569,323.482715 C105.742565,323.490614 105.733322,323.501449 105.72672,323.516741 C105.876369,323.598871 106.067613,323.555831 106.241691,323.563224 C106.282184,323.557046 106.322898,323.551679 106.363831,323.546211 C106.484872,323.578516 106.611194,323.604643 106.744338,323.595326 C107.193728,323.56373 107.632994,323.62196 108.077762,323.622872 L108.077982,323.622872 C108.561262,323.680899 109.059288,323.640493 109.54477,323.683836 C109.534866,323.682621 109.525183,323.681203 109.51704,323.679481 C109.540368,323.682013 109.563256,323.684646 109.591205,323.687583 C109.573599,323.686975 109.558634,323.685659 109.54477,323.683836 C109.560395,323.685254 109.57624,323.685963 109.591865,323.687583 L109.592085,323.687583 L109.592305,323.687583 C109.657887,323.688292 109.723689,323.6889 109.789271,323.689608 C109.895566,323.623277 110.013305,323.691533 110.124222,323.681608 C110.20873,323.682823 110.293018,323.684039 110.377527,323.685254 L110.377527,323.685254 L110.377527,323.685254 C110.615866,323.71128 110.855085,323.732648 111.100247,323.721913 C111.118733,323.72161 111.137439,323.721306 111.155925,323.721103 C111.285769,323.742674 111.421334,323.753307 111.553158,323.771131 C112.014651,323.768498 112.477465,323.790878 112.938738,323.758168 C112.966248,323.744092 112.982093,323.732446 112.993537,323.721913 C112.995517,323.722724 112.997498,323.72323 112.999479,323.72404 C113.221753,323.758067 113.444907,323.720698 113.667841,323.721205 C114.017097,323.721913 114.400024,323.86521 114.719351,323.666519 C114.748841,323.648189 114.865919,323.663481 114.938764,323.671684 C114.998624,323.678368 115.04792,323.713508 115.118784,323.690317 C115.43811,323.58601 115.794408,323.621454 116.139703,323.614973 C116.166332,323.617504 116.193181,323.619935 116.22003,323.622365 C116.31048,323.655683 116.415235,323.652544 116.518009,323.65467 C116.548819,323.656392 116.578969,323.655076 116.608459,323.652442 C116.585792,323.643733 116.563344,323.633809 116.541337,323.620846 C116.617262,323.590364 116.703751,323.578718 116.797942,323.580541 L116.797942,323.580642 C116.905998,323.58044 117.013834,323.580338 117.12167,323.580136 C117.140816,323.585605 117.168765,323.593098 117.190113,323.601301 L117.461023,323.601301 L117.520662,323.601301 C117.558735,323.609403 117.597688,323.607479 117.637081,323.601301 C117.682636,323.601403 117.728192,323.601301 117.773747,323.601403 C117.84461,323.601504 117.915474,323.601504 117.986337,323.6012 C118.077228,323.599377 118.169658,323.602719 118.255927,323.582972 C118.268911,323.577908 118.282116,323.572946 118.29532,323.567882 C118.507691,323.637758 118.739648,323.59006 118.965443,323.584288 C118.990972,323.583579 118.98657,323.602415 118.953339,323.600187 C118.910645,323.597251 118.95664,323.622365 118.92583,323.607377 C118.821955,323.64667 118.699815,323.630973 118.583396,323.638872 C118.425383,323.649506 118.260769,323.591276 118.110899,323.653151 C118.108918,323.654873 118.106277,323.655784 118.104297,323.657202 C118.102976,323.655987 118.101216,323.655076 118.099895,323.653658 C117.863316,323.664595 117.626518,323.675532 117.389719,323.686368 C117.219162,323.679076 117.102303,323.761611 116.936368,323.761915 L116.936148,323.761915 C116.934167,323.783587 116.932187,323.80536 116.929986,323.827133 L118.436607,323.792701 C118.50659,323.816803 118.556107,323.807993 118.584936,323.766573 C118.581855,323.762928 118.577894,323.760193 118.574593,323.756953 C119.009678,323.776802 119.444542,323.771839 119.879407,323.755231 C120.354325,323.699432 120.841347,323.705913 121.322427,323.688697 C121.518732,323.681608 121.717678,323.637556 121.928289,323.680595 C122.17257,323.73042 122.435557,323.733458 122.697004,323.717053 C122.778211,323.694874 122.869762,323.712495 122.953169,323.69852 C123.060125,323.680697 123.233763,323.693254 123.218138,323.606264 C123.202732,323.521805 123.046921,323.539729 122.929181,323.544084 C122.756424,323.606972 122.567601,323.609504 122.377238,323.605251 C122.4426,323.6012 122.495637,323.583174 122.513243,323.523931 C122.438858,323.466208 122.335864,323.48312 122.228028,323.487272 C122.049109,323.494057 121.87129,323.511678 121.69149,323.513095 C121.630089,323.519374 121.57067,323.530413 121.515871,323.552388 C121.282594,323.580845 121.053277,323.643024 120.808996,323.574769 C120.674532,323.587427 120.545128,323.648898 120.402521,323.58682 L120.402521,323.58682 L120.402521,323.586718 C120.264535,323.56849 120.114885,323.533957 120.073952,323.651835 C119.965896,323.658215 119.85696,323.661557 119.750444,323.67219 C119.656253,323.681507 119.565143,323.684646 119.538954,323.626517 C119.509024,323.560591 119.605856,323.529501 119.704669,323.522007 C120.06933,323.494361 120.435752,323.473195 120.801294,323.449498 C121.038533,323.447979 121.275772,323.446257 121.51279,323.444637 L121.846421,323.444637 C121.87239,323.43765 121.897258,323.429143 121.919706,323.416788 C121.938632,323.353494 121.860286,323.32605 121.768295,323.30367 C121.381407,323.316936 120.995618,323.301746 120.60983,323.292429 C120.383155,323.329494 120.141074,323.315923 119.914619,323.353089 C119.712151,323.397344 119.503082,323.404332 119.289391,323.383673 C119.165049,323.391471 119.040268,323.395825 118.915266,323.40018 C118.753953,323.442409 118.563149,323.410509 118.403376,323.456891 C118.392152,323.464182 118.380929,323.471271 118.369485,323.478461 C118.368605,323.479069 118.367284,323.479676 118.366184,323.480385 C118.362663,323.475828 118.359802,323.471575 118.35452,323.466613 C118.214773,323.410712 118.033433,323.435725 117.883783,323.399066 C117.72335,323.392281 117.560716,323.386913 117.402703,323.397851 C117.125851,323.416889 116.85142,323.447776 116.573467,323.412737 C116.562904,323.419421 116.55256,323.425801 116.541337,323.430763 C116.517129,323.440283 116.4905,323.447473 116.46211,323.452637 C116.224211,323.394914 115.988513,323.330202 115.722004,323.361697 C115.688113,323.352583 115.654222,323.343671 115.62055,323.334051 C115.561131,323.324531 115.500831,323.319063 115.43877,323.319873 C115.266233,323.332025 115.126046,323.307315 115.024152,323.238756 C115.026133,323.238756 115.027673,323.238756 115.029654,323.238857 C115.124065,323.275416 115.19735,323.266808 115.25743,323.230047 C115.280978,323.236933 115.306946,323.242604 115.333795,323.247971 C115.462538,323.25982 115.593261,323.250604 115.721784,323.256984 C116.362857,323.288986 116.985665,323.186906 117.622336,323.186602 C117.744917,323.184273 117.867278,323.180627 117.989638,323.176678 C118.498448,323.198957 118.991412,323.285948 119.504182,323.292429 C119.540714,323.292429 119.577026,323.292125 119.613339,323.290606 C119.876546,323.284834 120.140854,323.30367 120.402961,323.277947 C120.440814,323.261339 120.462381,323.246554 120.476025,323.232376 C120.491871,323.246047 120.514318,323.25506 120.544688,323.258503 C120.570217,323.254959 120.595965,323.252934 120.621494,323.250503 C120.870617,323.291315 121.132944,323.255972 121.385808,323.274909 C121.622167,323.292328 121.860506,323.301543 122.094224,323.327671 C122.096424,323.327671 122.098845,323.327772 122.101046,323.327772 C122.084761,323.348431 122.086741,323.3699 122.133617,323.390458 C122.254437,323.443726 122.38384,323.432181 122.500259,323.378609 L122.5051,323.373242 C122.614257,323.38266 122.670155,323.361799 122.692163,323.321392 C122.751362,323.324734 122.809902,323.332937 122.870202,323.326557 C122.883846,323.327063 122.896611,323.327266 122.909595,323.327569 C122.948988,323.4098 123.037237,323.414965 123.360085,323.383977 C123.422145,323.370609 123.485967,323.36514 123.550228,323.362406 C123.577297,323.362913 123.604146,323.362102 123.630775,323.360077 C123.672369,323.359368 123.713962,323.358659 123.755336,323.35795 C123.757977,323.359469 123.759518,323.360988 123.762379,323.362507 C123.88804,323.408585 124.032188,323.395623 124.168634,323.39299 C124.60944,323.384179 125.044745,323.40899 125.47983,323.443118 C125.625078,323.435624 125.769886,323.430763 125.915355,323.437852 C125.907432,323.452637 125.903691,323.467828 125.910953,323.484639 C125.779349,323.550059 125.578643,323.47998 125.44968,323.550261 C125.819623,323.535577 126.190666,323.598263 126.560389,323.546717 C126.647098,323.509247 126.752073,323.515121 126.855287,323.516539 C126.940236,323.532742 127.026284,323.546413 127.118715,323.547122 C127.302696,323.569806 127.478975,323.547021 127.654813,323.521602 C127.876867,323.531628 128.098701,323.541653 128.321855,323.544995 C128.570318,323.557958 128.820101,323.514513 129.067243,323.55016 C129.315926,323.567275 129.566369,323.565047 129.816812,323.568186 C130.152204,323.572338 130.489796,323.547527 130.823647,323.583883 C131.190949,323.597251 131.558252,323.610719 131.925554,323.624188 C131.931056,323.632999 131.935897,323.64191 131.940299,323.650923 L131.939418,323.651126 C132.023706,323.685659 132.111076,323.677051 132.198885,323.655784 C132.263806,323.656088 132.328508,323.656189 132.393209,323.656493 C132.565087,323.658114 132.736964,323.659835 132.908621,323.661253 C132.918084,323.655886 132.922706,323.649809 132.926227,323.643632 C132.927547,323.643936 132.929088,323.644138 132.930408,323.644442 C132.923146,323.650113 132.915883,323.655784 132.908621,323.661253 C133.392782,323.682013 133.876943,323.702774 134.360884,323.723635 L134.426466,323.723635 C134.963884,323.745003 135.500863,323.779232 136.038502,323.783789 C136.445857,323.787131 136.852113,323.772751 137.252646,323.823791 C137.553926,323.825006 137.854986,323.826221 138.156266,323.827436 C138.389324,323.856602 138.551078,323.995443 138.826169,323.95534 C139.285022,323.8883 139.739033,323.926073 140.194364,323.963037 C140.193924,323.974581 140.193924,323.986025 140.194364,323.99757 C140.214831,323.998177 140.235078,323.999089 140.255545,324 C140.581473,323.990076 140.907181,323.980151 141.23289,323.970125 C141.23531,323.967087 141.237731,323.964151 141.239932,323.961011 C141.241032,323.961416 141.242353,323.961619 141.243453,323.962024 C141.266121,323.960201 141.289008,323.958479 141.311896,323.956758 C141.276024,323.935694 141.238832,323.921921 141.201199,323.910883 C141.067615,323.848095 140.87219,323.899135 140.72298,323.865311 C140.604141,323.854678 140.487062,323.85407 140.374604,323.881413 C140.36096,323.886072 140.346875,323.890426 140.33279,323.894781 C140.248942,323.852754 140.137145,323.838171 140.026228,323.836551 C139.650343,323.830475 139.274898,323.800094 138.898353,323.820246 C138.786996,323.82612 138.659134,323.797764 138.565382,323.853564 C138.585849,323.82136 138.571324,323.794726 138.544695,323.769915 C138.699847,323.777814 138.855219,323.761611 139.01059,323.758269 C139.143295,323.806777 139.277099,323.800701 139.411784,323.760902 L139.412224,323.760902 C139.497392,323.759079 139.583001,323.757257 139.668389,323.755434 C139.675432,323.713711 139.621954,323.683937 139.561874,323.682925 C139.204255,323.677051 138.840034,323.629049 138.494519,323.719989 C138.46943,323.72242 138.444562,323.724648 138.419474,323.727078 C137.788304,323.701963 137.157354,323.676747 136.526184,323.651531 C136.571739,323.561705 136.883363,323.604947 136.846831,323.474208 C136.810079,323.469549 136.773106,323.464992 136.736574,323.460739 C136.986357,323.463169 137.222936,323.498816 137.468538,323.51188 C137.924969,323.536084 138.373038,323.533552 138.760147,323.374356 C138.805922,323.339519 138.856099,323.309847 138.947429,323.330405 C138.975159,323.33162 139.003108,323.331519 139.030617,323.328481 C139.031277,323.328278 139.032158,323.328278 139.033038,323.328076 C139.061868,323.351165 139.105442,323.364938 139.15848,323.372938 C139.191271,323.376483 139.224061,323.377698 139.257293,323.375875 C139.577059,323.343064 139.904528,323.366153 140.226935,323.322303 C140.645294,323.26539 141.068275,323.228831 141.512603,323.277441 C141.71441,323.299518 141.951869,323.283821 142.142012,323.209995 C142.153016,323.216679 142.163799,323.223869 142.173923,323.232376 C142.245006,323.254554 142.322032,323.257288 142.401698,323.25182 C142.403239,323.251415 142.404559,323.25101 142.4061,323.250604 C142.403239,323.285644 142.423706,323.317746 142.485546,323.344481 C142.507774,323.351773 142.530001,323.351874 142.552449,323.344887 C142.554209,323.342051 142.55707,323.340127 142.558831,323.337393 C142.572475,323.351165 142.58832,323.365343 142.607907,323.380736 C142.73577,323.419927 142.882338,323.413446 143.020544,323.420029 C143.224112,323.42975 143.42966,323.393698 143.634769,323.425497 C143.979623,323.479069 144.337462,323.477752 144.69134,323.4895 C145.358822,323.435219 146.031146,323.476841 146.700828,323.462866 C146.861042,323.459524 147.026977,323.479778 147.178167,323.434105 C147.191592,323.428434 147.200174,323.422257 147.206116,323.415573 C147.225263,323.419421 147.244409,323.422763 147.263556,323.427016 C147.923995,323.417396 148.585315,323.44403 149.246195,323.418915 C149.312657,323.416282 149.385501,323.419725 149.4414,323.406458 C149.589289,323.406256 149.736958,323.406053 149.884627,323.405851 L149.884627,323.405952 C150.062006,323.407167 150.239165,323.408281 150.416544,323.409497 C150.569055,323.408788 150.721566,323.40818 150.874297,323.407471 C151.178218,323.407978 151.482359,323.408484 151.78628,323.40899 C151.923826,323.366153 152.054549,323.417902 152.189014,323.416991 C152.383779,323.414965 152.578323,323.384888 152.772868,323.417193 C152.950027,323.440586 153.127406,323.498209 153.303024,323.415066 C153.783224,323.491322 154.258142,323.423674 154.73394,323.397648 C154.759029,323.39623 154.777735,323.363115 154.799742,323.344684 C154.560523,323.344887 154.321083,323.345089 154.081863,323.345292 C154.061397,323.34438 154.04071,323.344583 154.020463,323.346102 L154.020243,323.346102 C153.779483,323.345089 153.538503,323.343975 153.297743,323.343064 C153.118163,323.343367 152.938803,323.343671 152.759444,323.343874 C152.734795,323.324025 152.698923,323.30924 152.651168,323.299416 C152.365733,323.302252 152.074796,323.250908 151.797284,323.324633 C151.788921,323.329696 151.783419,323.33476 151.778137,323.339823 C151.698251,323.302049 151.616383,323.302961 151.532756,323.340633 C151.532095,323.340836 151.531435,323.340937 151.530775,323.341241 C151.530115,323.340329 151.530115,323.339418 151.529234,323.338608 L151.533856,323.338608 C151.531875,323.337696 151.529895,323.336785 151.527694,323.335874 C151.518891,323.327266 151.506787,323.31967 151.489841,323.313695 C151.481699,323.311974 151.473556,323.311062 151.465413,323.309645 C151.464533,323.30924 151.463433,323.308835 151.462552,323.308328 C151.461232,323.308429 151.459691,323.308429 151.458371,323.308429 C151.264926,323.275213 151.064,323.299416 150.867034,323.291214 C150.817078,323.291214 150.767561,323.291214 150.717825,323.290707 C150.653343,323.291011 150.590842,323.279365 150.526141,323.283618 C150.477505,323.288884 150.436351,323.300935 150.40334,323.320379 C150.395857,323.327367 150.388595,323.334354 150.381113,323.341342 C150.350302,323.338203 150.317511,323.337595 150.28406,323.338507 C150.188769,323.318455 150.093477,323.319367 149.998185,323.342962 C149.933264,323.334658 149.877585,323.312278 149.839732,323.262352 C149.847215,323.255263 149.855578,323.248073 149.865921,323.240883 C149.878245,323.216679 149.875824,323.192982 149.855358,323.170196 C149.813984,323.139714 149.756105,323.132321 149.689422,323.137081 C149.538452,323.106802 149.448222,323.152474 149.354691,323.194096 C149.173351,323.054951 148.908823,323.132625 148.671364,323.140828 C148.547243,323.094953 148.403975,323.099105 148.262028,323.097282 C148.127563,323.095459 147.993979,323.146803 147.857093,323.099206 C148.226816,323.108422 148.465375,323.083003 148.65948,323.014039 C148.675325,323.020115 148.69117,323.026292 148.709436,323.030849 C148.807589,323.050293 148.906402,323.049685 149.006315,323.035811 C149.031624,323.025077 149.056052,323.019406 149.08026,323.015659 C149.090603,323.020216 149.101167,323.024874 149.11129,323.029431 C149.169169,323.028824 149.228809,323.03328 149.286028,323.031356 C149.339946,323.041989 149.393644,323.052318 149.448882,323.049078 C149.479253,323.048166 149.509182,323.045128 149.537792,323.039761 C149.555398,323.035609 149.571463,323.030647 149.586428,323.025178 C149.62076,323.028925 149.656852,323.02933 149.692283,323.031356 C149.765128,323.065483 149.819706,323.054141 149.866141,323.022646 C149.888809,323.042394 149.920279,323.056876 149.962973,323.064876 C150.110202,323.078649 150.250609,323.0349 150.397838,323.050394 C150.446254,323.050496 150.49489,323.050799 150.542866,323.054141 C150.685474,323.078547 150.830502,323.092016 150.981032,323.081079 C151.014263,323.080674 151.047274,323.078446 151.079625,323.073383 C151.290015,323.037533 151.505466,323.047761 151.720478,323.053939 C151.78738,323.054344 151.850101,323.046242 151.908641,323.029128 C151.949354,323.020925 151.974883,323.008266 151.992268,322.993278 C152.055649,322.995101 152.119031,322.996924 152.182412,322.998646 L152.182632,322.998747 C152.315556,323.060724 152.468287,323.167766 152.615296,323.147512 C153.131807,323.076522 153.641717,323.178399 154.150526,323.135157 C154.171213,323.13617 154.1919,323.136879 154.212807,323.137284 C154.40207,323.208881 154.540716,323.083104 154.724917,323.102649 C154.994727,323.131106 155.274,323.123207 155.547331,323.126954 C155.697201,323.12898 155.90649,323.155411 156.013006,323.051306 C156.016307,323.044217 156.014986,323.038343 156.014986,323.032166 L156.118421,323.031052 L156.118201,323.031356 C156.093553,323.072167 156.069345,323.112979 156.015867,323.202198 C156.244083,323.094852 156.455133,323.225996 156.639554,323.136271 C156.748931,323.135765 156.858087,323.135157 156.967243,323.134651 C157.175873,323.194906 157.403428,323.160677 157.621961,323.170804 L157.622181,323.170804 C157.785255,323.197843 157.95031,323.205945 158.115805,323.207261 C158.152998,323.216983 158.194812,323.219616 158.240367,323.210603 C158.24917,323.208881 158.257312,323.208578 158.266115,323.207058 C158.363608,323.205945 158.46132,323.203717 158.558813,323.2024 C158.691297,323.217489 158.816518,323.247668 158.950103,323.255567 C159.160053,323.230553 159.376825,323.228528 159.587435,323.204527 C159.758652,323.205337 159.93361,323.188222 160.096684,323.229945 C160.168208,323.177184 160.271862,323.167563 160.38498,323.171006 C161.340978,323.200577 162.296316,323.193083 163.251213,323.168981 C163.291047,323.18883 163.355308,323.19126 163.424851,323.186501 C163.593647,323.174956 163.766185,323.21597 163.933,323.175867 C163.934981,323.175969 163.936961,323.175462 163.938942,323.175462 C163.955007,323.190146 163.970413,323.205134 163.986258,323.220426 C164.422883,323.29972 164.856427,323.272074 165.289311,323.20959 C165.398468,323.20797 165.507404,323.206248 165.61656,323.204527 C165.728357,323.244933 165.841915,323.261947 165.962075,323.213135 C166.053626,323.175867 166.161902,323.190552 166.264676,323.187412 C166.468904,323.19602 166.695139,323.152474 166.873178,323.207666 C167.116579,323.283112 167.346115,323.271669 167.591937,323.234503 C167.598319,323.214451 167.610423,323.199159 167.625168,323.186399 C167.636832,323.190349 167.645635,323.195615 167.647836,323.203413 C167.669403,323.204527 167.69097,323.205236 167.712537,323.205539 C167.968923,323.275517 168.246435,323.242604 168.507882,323.233996 C168.871223,323.221844 169.22466,323.243718 169.579198,323.251718 C169.82612,323.25739 170.137084,323.25982 170.403812,323.207464 C170.341532,323.226705 170.254163,323.241389 170.265166,323.287062 C170.278811,323.343773 170.378064,323.321392 170.444086,323.324734 C170.505926,323.327873 170.568647,323.325544 170.631148,323.325443 C170.631148,323.331418 170.640611,323.337696 170.659317,323.343975 L170.659317,323.343975 L170.659317,323.344076 C170.662619,323.353494 170.66812,323.362507 170.675603,323.371217 C170.603639,323.374761 170.531675,323.378306 170.459711,323.38185 C170.615963,323.421244 170.771115,323.432789 170.923405,323.376685 C170.942992,323.374356 170.962578,323.373546 170.982605,323.374255 C170.987447,323.364533 170.993389,323.354912 171.000211,323.345393 L170.999991,323.345292 C171.078557,323.345595 171.157123,323.345899 171.235689,323.346102 C171.429794,323.393901 171.634682,323.369799 171.835829,323.371318 L171.881164,323.371318 C171.882924,323.373748 171.884905,323.375774 171.886666,323.378306 C171.915055,323.386306 171.942564,323.385192 171.969413,323.376483 C171.972494,323.381749 171.974035,323.386407 171.978436,323.392179 C172.120603,323.447169 172.303704,323.42094 172.454675,323.458005 C172.570213,323.463169 172.685531,323.465802 172.799749,323.451726 C173.497822,323.394306 174.201616,323.394205 174.90541,323.399572 C175.697453,323.405851 176.489277,323.405851 177.28,323.377495 C177.302007,323.377394 177.323794,323.377293 177.345581,323.377192 C177.64092,323.295264 177.981153,323.387521 178.346034,323.30691 C178.346034,323.306505 178.346254,323.306303 178.346254,323.305999 C177.951443,323.251516 177.61077,323.304176 177.28088,323.274403 L177.28088,323.274302 C177.28066,323.262656 177.28044,323.25101 177.28044,323.239262 C177.27978,323.239364 177.279339,323.239465 177.278899,323.239566 C177.28132,323.236325 177.28198,323.232882 177.285722,323.229743 C177.249409,323.23187 177.213097,323.23349 177.176785,323.233389 C177.122427,323.243414 177.069169,323.256579 177.018113,323.274403 C176.254679,323.308126 175.489484,323.30286 174.72473,323.308429 C174.646384,323.348431 174.537007,323.356735 174.453159,323.339722 C173.960856,323.240072 173.456008,323.328582 172.959963,323.303974 C172.919249,323.279568 172.898122,323.259516 172.887999,323.242098 C172.653841,323.236123 172.419023,323.275618 172.185525,323.248579 C172.187066,323.243718 172.186185,323.238553 172.185305,323.23349 C172.358723,323.168475 172.587599,323.24149 172.760356,323.174652 L172.760356,323.174652 C172.869513,323.174146 172.978889,323.17364 173.088045,323.173234 C173.152307,323.172627 173.216788,323.172019 173.281049,323.171513 C173.383604,323.218502 173.509265,323.202096 173.625904,323.203312 C173.992766,323.206957 174.359848,323.20716 174.72671,323.20878 C174.921915,323.187108 175.130325,323.227515 175.318047,323.172931 L175.318267,323.172931 C175.994332,323.160677 176.670177,323.148423 177.346242,323.13617 C177.384094,323.092624 177.449456,323.071256 177.539246,323.069636 C177.861433,323.094447 178.162493,323.041179 178.467074,323.000367 L178.467295,323.000367 C178.527375,323.000367 178.587455,323.000468 178.647534,323.000468 L178.647755,323.00057 C178.751629,323.041786 178.87443,323.039153 178.983366,323.021634 C179.154583,322.99419 179.027381,322.962492 178.973463,322.934441 C178.600219,322.925326 178.226094,322.904465 177.857912,322.959555 C177.839426,322.957834 177.82138,322.959049 177.804214,322.9631 C177.476745,322.944162 177.148616,322.949428 176.820707,322.960973 C176.703188,322.923605 176.570924,322.941732 176.445702,322.933732 C176.338526,322.960264 176.233331,322.978392 176.106789,322.973328 C175.647056,322.954897 175.186223,322.943656 174.72605,322.929883 C174.561215,322.896667 174.410465,322.920567 174.264116,322.961176 C174.259055,322.962188 174.254213,322.963606 174.249372,322.96472 C174.249372,322.963201 174.250472,322.96229 174.250472,322.960669 C173.758388,322.933225 173.250899,322.935048 172.774001,322.953074 C172.342217,322.969277 171.889967,323.012317 171.446519,323.042293 C171.295769,323.052622 171.143699,323.056673 170.992068,323.063458 L168.89411,323.032875 C168.848335,323.053534 168.789796,323.05485 168.739839,323.048268 C168.715411,323.044926 168.690763,323.043305 168.666335,323.040166 C168.654671,323.044521 168.642347,323.048166 168.631343,323.053432 C168.617918,323.055863 168.616598,323.060724 168.620559,323.0668 C168.605814,323.064673 168.59107,323.06285 168.575664,323.063458 C168.566641,323.063053 168.557618,323.063154 168.548595,323.06285 C168.554978,323.051407 168.559379,323.038242 168.560699,323.022343 C168.153784,322.952264 167.725742,322.949327 167.311564,322.958239 C166.418507,322.97748 165.533152,322.948416 164.645817,322.907199 C164.32275,322.892312 163.99198,322.875907 163.685858,322.961986 C163.66341,322.974645 163.650866,322.986189 163.642724,322.997228 C163.624017,322.994797 163.605091,322.993683 163.586165,322.995607 C163.449939,322.976771 163.318116,322.97586 163.175068,322.989835 C162.761771,323.030444 162.347373,323.019305 161.938477,322.965935 C161.85793,322.902034 161.730067,322.918541 161.614309,322.911655 C161.340538,322.895249 161.079311,322.948416 160.80664,322.947707 C160.074237,322.945783 159.346014,322.871552 158.61097,322.914693 C158.557932,322.914592 158.505995,322.917022 158.455818,322.927048 C158.447456,322.934137 158.436672,322.938795 158.426769,322.944264 C158.180287,322.912161 157.933585,322.919959 157.687103,322.962188 L157.686883,322.962188 L157.686662,322.962087 C157.577946,322.962999 157.46901,322.963809 157.360074,322.964619 L157.360294,322.964619 L157.360074,322.964619 L157.356993,322.964113 C157.031725,322.890591 156.704256,322.991253 156.378547,322.960366 C156.362042,322.975151 156.335193,322.979303 156.305263,322.980316 C156.329691,322.973632 156.354119,322.967049 156.378547,322.960366 C156.225376,322.961581 156.072205,322.962695 155.919035,322.96391 C155.901429,322.959961 155.882943,322.957935 155.864016,322.957733 C155.857414,322.949327 155.850812,322.940922 155.84421,322.932415 L155.329458,322.930288 C155.287204,322.928567 155.24517,322.926744 155.203136,322.925022 C155.005731,322.878033 154.82263,322.953378 154.636668,322.946289 C154.189479,322.929276 153.744271,322.900616 153.300604,322.960467 L153.303024,322.959758 C152.911734,322.991658 152.556096,322.859197 152.162165,322.8913 C152.098344,322.896566 152.103625,322.864058 152.114629,322.837424 C152.139717,322.837019 152.162385,322.832462 152.180871,322.822234 C152.286506,322.736256 152.436156,322.691798 152.6285,322.687545 C152.62806,322.688963 152.6274,322.689773 152.62718,322.691191 C152.647646,322.706179 152.674275,322.717723 152.705966,322.725217 C152.854515,322.734028 153.002404,322.740205 153.148533,322.738686 C153.132908,322.74375 153.117723,322.749725 153.103418,322.757928 C153.217856,322.75732 153.338676,322.774536 153.436169,322.725622 C153.430447,322.725724 153.424505,322.725521 153.418563,322.72542 C153.556109,322.712457 153.691234,322.689165 153.822617,322.650278 C153.824818,322.649366 153.826579,322.648252 153.828779,322.647442 C153.832741,322.656557 153.835161,322.665266 153.841544,322.675595 C153.931113,322.70547 154.022884,322.705976 154.117295,322.680659 C154.123017,322.667595 154.1327,322.657468 154.144804,322.649265 C154.286091,322.649873 154.427378,322.650379 154.568665,322.650987 C154.576808,322.656253 154.58363,322.661924 154.593754,322.666987 C154.634247,322.680861 154.678702,322.686634 154.726898,322.68552 C154.745164,322.681469 154.759469,322.677621 154.776414,322.673671 C154.873467,322.721065 155.010132,322.728458 155.115987,322.721065 C155.434213,322.698482 155.7542,322.710128 156.071105,322.690684 C156.102576,322.685216 156.134706,322.682279 156.166837,322.679342 C156.437307,322.724002 156.707557,322.723192 156.978027,322.668608 C157.022261,322.678127 157.071558,322.682178 157.126136,322.680355 C157.843135,322.659493 158.561013,322.671646 159.278672,322.665975 C159.492143,322.664354 159.706274,322.676709 159.879912,322.598023 C159.895757,322.602985 159.909842,322.609061 159.928328,322.6122 C160.067634,322.626885 160.198358,322.593871 160.334583,322.592757 C160.402146,322.575743 160.469928,322.563085 160.537711,322.552553 C160.813463,322.452802 161.120905,322.499082 161.421085,322.512349 C161.873775,322.556603 162.328006,322.591845 162.7906,322.578275 C162.799843,322.585668 162.809086,322.592959 162.818549,322.600453 C162.817889,322.608757 162.814148,322.616353 162.808426,322.623441 C162.997029,322.588706 163.192674,322.604301 163.385678,322.600656 C163.388759,322.600858 163.39184,322.600757 163.395141,322.601061 C163.3903,322.598732 163.385018,322.59701 163.380396,322.59458 C163.36015,322.577668 163.36191,322.561363 163.385458,322.545666 C163.619396,322.535337 163.855094,322.511133 164.086831,322.519032 C164.267511,322.525109 164.190706,322.465056 164.212053,322.430826 C164.210953,322.429004 164.208972,322.427485 164.207872,322.425662 C164.210512,322.42556 164.212933,322.425257 164.215354,322.425155 L164.212273,322.42394 C164.214254,322.421206 164.218655,322.419383 164.221736,322.416953 C164.221296,322.419282 164.221076,322.421408 164.220856,322.423839 C164.490446,322.413003 164.751893,322.494019 165.025223,322.444093 C165.043049,322.461309 165.062196,322.477005 165.083103,322.490576 C165.319241,322.475588 165.562862,322.504146 165.793719,322.457359 C165.809124,322.452701 165.824749,322.449359 165.840154,322.446017 C165.859961,322.454017 165.88791,322.457764 165.91564,322.463638 C166.269957,322.537463 166.634839,322.497664 166.996639,322.494829 C167.188763,322.468904 167.376045,322.498373 167.564868,322.507893 C167.596119,322.507285 167.626269,322.504247 167.655318,322.498171 C167.765135,322.428193 167.873851,322.445004 167.982347,322.498272 C168.206602,322.552958 168.425134,322.479841 168.647188,322.488246 C168.697145,322.478525 168.738959,322.463334 168.776811,322.445409 C168.793317,322.446017 168.809822,322.446523 168.826328,322.44703 C168.869242,322.430219 168.876064,322.413003 168.869462,322.395483 C168.887288,322.387483 168.905554,322.379787 168.92426,322.372394 C168.961893,322.359128 169.01493,322.356393 169.061366,322.349304 C169.120566,322.352646 169.174924,322.346975 169.211896,322.310012 C169.215417,322.309303 169.219378,322.309303 169.2229,322.308493 C169.243146,322.303531 169.261853,322.296745 169.280559,322.290062 C169.514497,322.351735 169.756577,322.353153 170.0057,322.304644 C170.139505,322.272846 170.279031,322.268187 170.420758,322.282061 C170.912182,322.329962 171.406246,322.356798 171.906692,322.341304 C172.671227,322.328443 173.435761,322.315582 174.200295,322.302619 C174.265437,322.30505 174.330579,322.307277 174.39594,322.309607 C174.507517,322.311227 174.620635,322.308999 174.723629,322.338367 C174.855013,322.328342 174.986397,322.318316 175.11778,322.30829 L175.142429,322.312544 C175.142429,322.312544 175.167737,322.311227 175.168177,322.311126 C175.275573,322.348899 175.396393,322.344443 175.516113,322.340494 C175.732885,322.333304 175.949877,322.316594 176.166209,322.319126 C176.362735,322.321354 176.673258,322.333101 176.644208,322.445511 C176.611417,322.573414 176.718813,322.534628 176.818726,322.534932 C176.923921,322.535236 177.028896,322.525817 177.134311,322.520349 C177.13123,322.530071 177.133871,322.539894 177.146855,322.54992 L177.147736,322.550223 C177.323134,322.619188 177.499853,322.617466 177.677892,322.552958 C178.348235,322.513057 179.032002,322.503741 179.695963,322.502829 C180.381271,322.501817 181.049854,322.396699 181.76179,322.47255 C182.539529,322.555489 183.360402,322.486626 184.162129,322.476297 C184.399808,322.475081 184.631985,322.447739 184.871425,322.445713 C185.394979,322.44146 185.921394,322.443181 186.438126,322.385559 C186.742927,322.449663 187.047068,322.478322 187.385541,322.459688 C187.814904,322.436194 188.257911,322.342317 188.683973,322.474676 C189.038071,322.46617 189.402732,322.513868 189.740104,322.418573 C189.733282,322.413307 189.72646,322.40794 189.719637,322.402775 C189.720958,322.402268 189.722058,322.402167 189.723379,322.401762 C189.72888,322.407231 189.734602,322.412902 189.740104,322.418573 C189.827253,322.419586 189.918143,322.408142 189.994949,322.441055 C190.562518,322.455435 191.130747,322.401965 191.698315,322.442979 C191.855008,322.450574 192.006638,322.438624 192.154527,322.410876 L193.211099,322.410876 C193.211979,322.393762 193.212419,322.376647 193.213079,322.359533 C192.978481,322.299277 192.718575,322.36095 192.476494,322.337557 C192.420376,322.33695 192.364257,322.336241 192.307918,322.335633 C192.305277,322.328139 192.300436,322.319734 192.291633,322.310012 C191.606325,322.226262 190.903191,322.266668 190.211061,322.229705 C190.153181,322.229705 190.102345,322.238414 190.060751,322.260491 C190.056129,322.265554 190.054809,322.270618 190.052608,322.27558 C189.00682,322.248946 187.960592,322.229907 186.913264,322.239731 C186.891477,322.238819 186.869249,322.238009 186.847462,322.237098 C186.759873,322.211679 186.671844,322.227477 186.583594,322.23568 C186.568189,322.231528 186.552784,322.231123 186.536719,322.234465 C186.275052,322.175627 185.997979,322.219173 185.73015,322.200641 L185.73015,322.200539 C185.670731,322.200641 185.611091,322.200641 185.551671,322.200641 C185.435692,322.169855 185.319494,322.16074 185.204175,322.201653 L185.207036,322.200033 C185.207036,322.200033 185.207036,322.199932 185.207256,322.199932 L185.207036,322.199932 C184.577187,322.143727 183.940955,322.191526 183.309125,322.166614 C183.086631,322.103118 182.860176,322.167424 182.635041,322.163576 C181.680803,322.14717 180.726566,322.119726 179.771008,322.136334 C179.861018,322.180792 179.973476,322.169247 180.079991,322.169348 C180.961164,322.169855 181.843217,322.162361 182.712947,322.256238 C182.792613,322.264846 182.863037,322.270314 182.920256,322.234262 C183.033373,322.163576 183.171359,322.185956 183.308905,322.203476 C183.321889,322.20378 183.334874,322.204084 183.347638,322.204286 C183.269072,322.227578 183.213613,322.265352 183.159475,322.303834 C183.159035,322.305353 183.159695,322.306366 183.159475,322.307784 C183.121843,322.307581 183.08399,322.30748 183.046358,322.307379 L183.046138,322.307379 C182.907712,322.299378 182.731433,322.310316 182.646705,322.33381 C182.435654,322.392141 182.246171,322.26677 182.06263,322.342418 C182.053607,322.341912 182.045025,322.340798 182.036222,322.340089 C182.03116,322.338671 182.025658,322.337557 182.020596,322.335937 C182.008933,322.335734 181.997489,322.335836 181.985825,322.335633 C181.918923,322.327937 181.852461,322.318316 181.776535,322.327633 C181.757609,322.330164 181.738243,322.33138 181.719096,322.333506 C181.264645,322.332392 180.810194,322.343329 180.355963,322.346469 C180.003185,322.341709 179.644466,322.327126 179.289048,322.317303 C179.23601,322.315784 179.197938,322.315885 179.179011,322.324493 C179.08548,322.323683 178.991069,322.313556 178.901499,322.337658 C178.87399,322.350216 178.8434,322.356292 178.812149,322.360039 C178.676584,322.305556 178.541459,322.265352 178.341853,322.305556 C178.195064,322.335127 178.294757,322.388394 178.279132,322.42556 C178.190442,322.433358 178.097351,322.424953 178.007782,322.428902 C177.976971,322.429105 177.945941,322.42951 177.915351,322.430421 C177.878599,322.430826 177.843387,322.434979 177.808175,322.439637 C177.806635,322.418674 177.804654,322.39761 177.802894,322.376647 C177.803774,322.365001 177.804214,322.353558 177.804214,322.342114 C177.888722,322.355381 177.938018,322.421408 178.050036,322.389002 C178.065441,322.384546 178.075124,322.357203 178.064341,322.347887 C178.00294,322.294214 177.916671,322.27315 177.800253,322.30191 C177.781987,322.306366 177.759319,322.305556 177.738632,322.307176 C177.154998,322.296948 176.571144,322.286922 175.98773,322.276289 C175.80705,322.273048 175.625489,322.312138 175.445689,322.272643 C175.336093,322.272339 175.226717,322.272137 175.11712,322.271934 C174.899688,322.272036 174.682256,322.272036 174.464603,322.272036 C174.377234,322.222211 174.289425,322.277504 174.201836,322.271732 C173.622383,322.267276 173.04161,322.181197 172.465678,322.265149 C172.266732,322.294214 172.081871,322.200235 171.909993,322.257959 C171.62764,322.352748 171.408887,322.288948 171.186173,322.20378 C171.150961,322.14717 171.050388,322.158107 170.971821,322.144638 C170.869267,322.126916 170.792902,322.098257 170.858704,322.031824 C170.900298,322.021798 170.942112,322.011671 170.983705,322.001646 C170.991188,321.992025 170.99867,321.982404 171.006153,321.972784 C170.990748,321.952935 170.965219,321.937947 170.929127,321.92782 C170.695189,321.89511 170.45663,321.917693 170.220712,321.910807 C169.700679,321.911009 169.180426,321.90949 168.660172,321.911921 C168.538472,321.912427 168.405768,321.90068 168.313557,321.959214 C168.311577,321.959315 168.309816,321.95972 168.307835,321.95972 C168.303874,321.954758 168.301893,321.949694 168.293531,321.944935 C168.055851,321.885692 167.809149,321.911718 167.564208,321.92306 C167.547042,321.925896 167.530097,321.928428 167.513371,321.931061 C166.786249,321.962049 166.062208,321.940479 165.339268,321.897743 C165.302516,321.876476 165.263783,321.87202 165.222409,321.894199 C164.879095,321.892578 164.536001,321.891059 164.192907,321.889439 C164.163857,321.882755 164.133267,321.879818 164.096294,321.888932 C163.828685,321.891059 163.561297,321.896224 163.293908,321.8943 C163.050287,321.892477 162.797863,321.932884 162.566346,321.863413 C162.58043,321.859564 162.595615,321.857336 162.608159,321.851868 C162.830433,321.760624 163.100903,321.830196 163.338362,321.790701 C163.364551,321.783916 163.386999,321.774599 163.406805,321.763459 C163.418029,321.77308 163.432114,321.781485 163.45192,321.787663 C163.576702,321.815715 163.708085,321.803461 163.837048,321.804777 C163.874681,321.804372 163.911873,321.802043 163.948625,321.79698 C164.072967,321.769637 164.20391,321.77227 164.334854,321.772371 C164.846964,321.772776 165.359295,321.774295 165.871405,321.770447 C165.9766,321.769738 166.102042,321.783815 166.174006,321.736623 C166.179948,321.736825 166.185669,321.737433 166.191831,321.737636 C166.208997,321.737636 166.226163,321.737433 166.243329,321.737332 C166.24773,321.747965 166.256313,321.758295 166.271498,321.768422 C166.317493,321.785739 166.36899,321.793131 166.425109,321.792625 C166.561334,321.775713 166.69998,321.764067 166.838627,321.774903 C167.161914,321.800119 167.475078,321.771358 167.787362,321.732167 C168.307395,321.714951 168.786495,321.562034 169.324133,321.601934 C169.438131,321.568313 169.558731,321.554439 169.687694,321.566692 C170.022866,321.587959 170.350115,321.511703 170.688147,321.543299 C170.760991,321.550287 170.819091,321.526387 170.849021,321.488917 C170.857163,321.492968 170.865746,321.496006 170.873669,321.500361 C171.488773,321.560211 172.106739,321.580161 172.728666,321.533071 C172.758376,321.546945 172.80129,321.553831 172.845745,321.56011 C173.202483,321.555148 173.558122,321.590592 173.915521,321.568211 C174.085637,321.563351 174.255754,321.566591 174.42609,321.565376 C174.569798,321.560414 174.722529,321.578946 174.84577,321.520716 C174.855013,321.51545 174.862496,321.509678 174.869758,321.504006 C174.930498,321.564262 175.015006,321.551198 175.109418,321.507146 C175.171478,321.498639 175.233539,321.48274 175.2956,321.48274 C176.460667,321.481626 177.625735,321.482436 178.790802,321.482841 C178.81303,321.492867 178.838778,321.497221 178.867828,321.496411 C178.884773,321.493069 178.898198,321.488512 178.908541,321.483044 C179.003613,321.48193 179.096264,321.457422 179.192216,321.473727 C179.237331,321.473119 179.274743,321.463094 179.309295,321.448916 C179.353309,321.446789 179.397544,321.444662 179.441559,321.442536 C179.544993,321.47879 179.62554,321.438181 179.713569,321.422079 C179.714009,321.422484 179.714229,321.422991 179.714449,321.423497 C179.735576,321.428155 179.756703,321.433827 179.77695,321.442333 C179.890508,321.488512 180.025193,321.471904 180.152615,321.478183 C180.212475,321.48112 180.301165,321.472005 180.310408,321.516564 C180.320751,321.570338 180.225459,321.579351 180.153275,321.58006 C179.915376,321.582592 179.678137,321.586237 179.44662,321.618948 C179.420872,321.617023 179.394683,321.614998 179.368934,321.613175 C179.347807,321.604162 179.329321,321.594845 179.312816,321.585225 C179.016157,321.609428 178.718178,321.604263 178.419759,321.588465 C178.298498,321.581984 178.193083,321.603352 178.175257,321.67181 C178.155231,321.750294 178.275611,321.763257 178.387848,321.769434 C178.495904,321.775207 178.60528,321.770447 178.713997,321.772675 C179.102426,321.780473 179.493716,321.767105 179.878624,321.78584 C180.072288,321.795258 180.240424,321.792726 180.412081,321.75151 C180.465119,321.745535 180.529821,321.731965 180.570314,321.744927 C180.804692,321.820474 181.026306,321.756067 181.25078,321.732876 C181.342551,321.723458 181.456989,321.712116 181.383485,321.635252 C181.364998,321.629277 181.345412,321.624112 181.325385,321.619454 C181.335068,321.626543 181.341451,321.636062 181.343211,321.649126 C181.086166,321.677785 180.885679,321.558895 180.631935,321.573174 C180.592541,321.575503 180.559751,321.548768 180.572075,321.523248 C180.597823,321.469676 180.692235,321.449017 180.770141,321.455397 C180.984932,321.473119 181.194442,321.451549 181.406152,321.448308 C181.304038,321.490639 181.179257,321.50188 181.059537,321.517172 C181.195982,321.51464 181.315922,321.49074 181.439383,321.495905 C181.48934,321.49469 181.539516,321.492563 181.589473,321.48912 C181.607519,321.486791 181.626225,321.485575 181.644491,321.483449 C181.612141,321.474942 181.58001,321.464916 181.548539,321.45165 L181.527412,321.436763 C182.06153,321.361824 182.608632,321.384103 183.151773,321.375191 C183.312646,321.37266 183.47396,321.374989 183.635274,321.37509 C183.651559,321.384103 183.658601,321.393926 183.656621,321.404155 C183.656401,321.405066 183.65596,321.40537 183.65574,321.406281 C183.666304,321.402939 183.676867,321.400003 183.686551,321.39585 C183.697774,321.390179 183.702396,321.383799 183.706797,321.377521 C183.719341,321.37985 183.731445,321.382382 183.74487,321.383799 C184.068598,321.321721 184.403769,321.346836 184.730138,321.362128 C185.015573,321.375597 185.255232,321.287289 185.526363,321.290834 C186.316645,321.301366 187.102747,321.24587 187.89281,321.25387 C188.021112,321.255187 188.156457,321.264301 188.268034,321.21478 C188.299945,321.202932 188.31469,321.18764 188.322613,321.170931 C188.402499,321.173057 188.482826,321.171032 188.563153,321.168601 C188.610468,321.176804 188.658664,321.176602 188.708181,321.165665 C188.829441,321.164652 188.950041,321.169918 189.06756,321.19797 C189.229314,321.217818 189.384026,321.218831 189.513209,321.151993 C189.51717,321.149259 189.520031,321.146221 189.523772,321.143385 C189.769154,321.185007 189.891294,321.149765 189.988787,321.009405 C190.02928,321.004646 190.069774,321.002013 190.110487,320.998367 C190.191254,321.015988 190.271801,321.022368 190.351688,321.018418 C190.345746,321.023684 190.340024,321.029963 190.334302,321.038267 C190.396803,321.016494 190.458863,321.049609 190.498696,321.002013 C190.489673,321.005456 190.47999,321.005861 190.470087,321.005557 C190.512781,320.998164 190.555255,320.988139 190.597949,320.975581 C190.763885,320.974974 190.93048,320.979835 191.097296,320.990164 C191.20161,320.991379 191.304164,320.973353 191.408919,320.982164 C191.513014,320.973556 191.613147,320.952289 191.717682,320.946112 C191.796688,320.952796 191.875254,320.958771 191.954261,320.961606 C191.965704,320.962518 191.976708,320.963429 191.988152,320.962821 C192.109852,320.965657 192.231553,320.958973 192.353693,320.929706 L192.354574,320.929301 C192.436441,320.897806 192.49388,320.862969 192.413773,320.809398 C192.381863,320.798765 192.347311,320.792587 192.309679,320.791068 C192.304837,320.791372 192.300216,320.791169 192.295374,320.791372 C192.155407,320.74094 191.993874,320.781852 191.841143,320.786106 C191.736168,320.769599 191.619309,320.776181 191.524678,320.740737 C191.421683,320.71309 191.315828,320.689089 191.204471,320.672684 C191.101257,320.662557 190.999583,320.664785 190.90055,320.68514 C190.857636,320.702558 190.812521,320.713901 190.765865,320.721698 C190.661771,320.716027 190.560757,320.699723 190.458863,320.68595 C190.462604,320.679469 190.466126,320.672583 190.467886,320.664278 C190.366652,320.56554 190.151861,320.620631 190.013875,320.571718 C189.815149,320.51602 189.60894,320.573034 189.407573,320.56068 C188.888201,320.528881 188.377631,320.457992 187.849675,320.46184 C187.816004,320.459005 187.782333,320.458397 187.748001,320.460625 C187.62234,320.462549 187.496898,320.461537 187.371016,320.461537 C187.402266,320.443004 187.435498,320.425282 187.464327,320.406041 C187.475331,320.408066 187.486114,320.40999 187.497118,320.412826 C187.605614,320.422852 187.716091,320.421332 187.824587,320.428219 C187.857818,320.427206 187.891709,320.4267 187.92472,320.426497 C188.140612,320.430649 188.357384,320.428725 188.572836,320.431257 C188.843966,320.434396 189.110915,320.385787 189.381605,320.418801 C189.524873,320.42751 189.670781,320.426801 189.807667,320.455359 C190.17761,320.453941 190.558116,320.512475 190.910233,320.47855 C191.310767,320.440067 191.677188,320.433586 192.054394,320.508222 C192.178515,320.532729 192.333007,320.55116 192.437981,320.51602 C192.717254,320.422143 193.029978,320.454954 193.325757,320.430244 C193.528664,320.413231 193.746757,320.402294 193.941301,320.411205 C194.362302,320.430852 194.786603,320.379002 195.202321,320.434092 C195.625742,320.461334 196.054444,320.429029 196.477205,320.462752 C197.403713,320.385584 198.317677,320.458802 199.237583,320.510045 C199.61831,320.531311 200.013561,320.496576 200.402431,320.519159 C200.455688,320.522197 200.500363,320.496373 200.541077,320.477132 C200.800103,320.449182 201.066612,320.464878 201.314194,320.487462 C202.011606,320.551363 202.706817,320.60696 203.416993,320.584883 C203.521308,320.623669 203.643669,320.611922 203.759647,320.620732 C204.366169,320.667215 204.985675,320.647468 205.586915,320.720281 C206.067555,320.704381 206.538512,320.786511 207.020252,320.758763 C207.410001,320.8016 207.803492,320.789853 208.196543,320.780739 C208.242538,320.767472 208.316923,320.758966 208.328147,320.740028 C208.348614,320.705394 208.265646,320.705495 208.224492,320.691824 C208.167713,320.672785 208.043152,320.6979 208.055036,320.638556 C208.0667,320.580832 208.178717,320.585693 208.262125,320.582959 C208.347293,320.580123 208.433342,320.582351 208.522692,320.582351 C208.51653,320.522906 208.314062,320.531919 208.384045,320.466904 C208.432021,320.42275 208.542058,320.452929 208.624145,320.449384 C208.656276,320.448169 208.688847,320.449283 208.720978,320.449283 C208.72868,320.446447 208.733082,320.442599 208.738803,320.439156 C208.739244,320.439662 208.739904,320.440067 208.740344,320.440574 C208.740124,320.440675 208.720978,320.449283 208.720978,320.449283 C209.197656,320.49293 209.671914,320.547008 210.151893,320.575262 C210.355901,320.587212 210.499829,320.526147 210.314968,320.405433 C210.364264,320.348114 210.455815,320.337481 210.56233,320.343355 L210.56211,320.343355 C210.565851,320.353077 210.568272,320.3629 210.569812,320.372926 C210.767438,320.411509 210.975848,320.427004 211.175014,320.394293 C211.410272,320.355406 211.640909,320.356317 211.877487,320.37485 C212.24611,320.397332 212.614733,320.419611 212.983135,320.442093 C213.033092,320.401281 212.960027,320.393483 212.919754,320.376774 L212.919754,320.376774 Z" id="Page-1-Copy-2" fill="#D2BE9B"></path>
            </g>
        </g>
    </g>
</svg>