<?xml version="1.0" encoding="utf-8"?>
<!-- Generator: Adobe Illustrator 22.1.0, SVG Export Plug-In . SVG Version: 6.00 Build 0)  -->
<svg version="1.1" id="Layer_1" xmlns="http://www.w3.org/2000/svg" xmlns:xlink="http://www.w3.org/1999/xlink" x="0px" y="0px"
	 viewBox="0 0 384 363" style="enable-background:new 0 0 384 363;" xml:space="preserve">
<style type="text/css">
	.st0{fill:none;stroke:#D3B27C;stroke-width:3.6563;stroke-miterlimit:10;}
	.st1{fill:#D3B27C;}
	.st2{fill:#FFFFFF;}
</style>
<g>
	<path class="st1" d="M189.7,262.4c-3.8-18.8-10.6-34.4-18.7-48.9c-6.1-10.7-13.1-20.7-19.6-31.1c-2.2-3.5-4-7.2-6.1-10.8
		c-4.2-7.2-7.5-15.6-7.3-26.4c0.2-10.6,3.3-19.1,7.7-26.1c7.3-11.4,19.5-20.8,35.8-23.3c13.4-2,25.9,1.4,34.8,6.6
		c7.3,4.2,12.9,9.9,17.2,16.6c4.5,7,7.5,15.2,7.8,26c0.1,5.5-0.8,10.6-2,14.8c-1.3,4.3-3.4,7.9-5.2,11.7
		c-3.6,7.5-8.1,14.3-12.6,21.2C207.8,213.1,195.2,233.9,189.7,262.4L189.7,262.4z"/>
	<circle class="st2" cx="189.9" cy="142" r="18.1"/>
</g>
<circle class="st0" cx="188.6" cy="172.9" r="121.9"/>
</svg>
