<?xml version="1.0" encoding="utf-8"?>
<!-- Generator: Adobe Illustrator 22.1.0, SVG Export Plug-In . SVG Version: 6.00 Build 0)  -->
<svg version="1.1" id="Layer_1" xmlns="http://www.w3.org/2000/svg" xmlns:xlink="http://www.w3.org/1999/xlink" x="0px" y="0px"
	 viewBox="0 0 600 400" style="enable-background:new 0 0 600 400;" xml:space="preserve">
<style type="text/css">
	.st0{fill:#224A6D;stroke:#FFFFFF;stroke-width:8.9923;stroke-miterlimit:10;}
	.st1{fill:#224A6D;stroke:#FFFFFF;stroke-width:24;stroke-miterlimit:10;}
	.st2{fill:none;stroke:#306E6F;stroke-width:8.0341;stroke-miterlimit:10;}
	.st3{fill:#FFFFFF;}
	.st4{fill:#DDDDDD;}
	.st5{fill:#DDDDDD;stroke:#FFFFFF;stroke-width:6.0768;stroke-miterlimit:10;}
	.st6{fill:none;stroke:#DDDDDD;stroke-width:5.9966;stroke-miterlimit:10;}
	.st7{fill:none;stroke:#DDDDDD;stroke-width:8.0341;stroke-miterlimit:10;}
</style>
<path class="st4" d="M300.4,193.2c-3.9,0-7.6,1-10.8,2.7h0c-4.1,2.2-7.5,5.7-9.6,9.9c-1.5,3-2.4,6.5-2.4,10.1
	c0,12.6,10.2,22.8,22.8,22.8c6.9,0,13.1-3.1,17.3-7.9c3-3.5,4.9-7.9,5.4-12.7c0.1-0.7,0.1-1.4,0.1-2.1
	C323.2,203.4,313,193.2,300.4,193.2z M300.4,193.2c-3.9,0-7.6,1-10.8,2.7h0c-4.1,2.2-7.5,5.7-9.6,9.9c-1.5,3-2.4,6.5-2.4,10.1
	c0,12.6,10.2,22.8,22.8,22.8c6.9,0,13.1-3.1,17.3-7.9c3-3.5,4.9-7.9,5.4-12.7c0.1-0.7,0.1-1.4,0.1-2.1
	C323.2,203.4,313,193.2,300.4,193.2z M376.3,155.3H346l-7.6-15.2c-3.8-7.6-6.8-15.2-15.2-15.2h-45.5c-8.4,0-11.4,7.7-15.2,15.2
	l-7.6,15.2h-30.3c-5.3,0-10.1,1.8-14,4.8c-5.4,4.1-8.8,10.7-8.8,18v75.9c0,12.6,10.2,22.8,22.8,22.8h151.8c3,0,5.8-0.6,8.4-1.6
	c4.5-1.8,8.3-5,10.9-9.1c2.2-3.5,3.5-7.6,3.5-12.1V178C399.1,165.4,388.9,155.3,376.3,155.3z M224.6,185.6c-4.2,0-7.6-3.4-7.6-7.6
	c0-4.2,3.4-7.6,7.6-7.6c0.8,0,1.6,0.1,2.4,0.4c1.3,0.4,2.4,1.2,3.3,2.2c1.2,1.3,1.9,3.1,1.9,5C232.2,182.2,228.8,185.6,224.6,185.6z
	 M327.3,237.1c-6.3,7.9-16,13-26.8,13c-18.9,0-34.2-15.3-34.2-34.2c0-5.9,1.5-11.5,4.2-16.4c2.2-4,5.2-7.6,8.8-10.4
	c5.8-4.6,13.2-7.4,21.2-7.4c18.9,0,34.2,15.3,34.2,34.2c0,3.1-0.4,6.1-1.2,9C332.3,229.4,330.1,233.6,327.3,237.1z M300.4,193.2
	c-3.9,0-7.6,1-10.8,2.7h0c-4.1,2.2-7.5,5.7-9.6,9.9c-1.5,3-2.4,6.5-2.4,10.1c0,12.6,10.2,22.8,22.8,22.8c6.9,0,13.1-3.1,17.3-7.9
	c3-3.5,4.9-7.9,5.4-12.7c0.1-0.7,0.1-1.4,0.1-2.1C323.2,203.4,313,193.2,300.4,193.2z M300.4,193.2c-3.9,0-7.6,1-10.8,2.7h0
	c-4.1,2.2-7.5,5.7-9.6,9.9c-1.5,3-2.4,6.5-2.4,10.1c0,12.6,10.2,22.8,22.8,22.8c6.9,0,13.1-3.1,17.3-7.9c3-3.5,4.9-7.9,5.4-12.7
	c0.1-0.7,0.1-1.4,0.1-2.1C323.2,203.4,313,193.2,300.4,193.2z M300.4,193.2c-3.9,0-7.6,1-10.8,2.7h0c-4.1,2.2-7.5,5.7-9.6,9.9
	c-1.5,3-2.4,6.5-2.4,10.1c0,12.6,10.2,22.8,22.8,22.8c6.9,0,13.1-3.1,17.3-7.9c3-3.5,4.9-7.9,5.4-12.7c0.1-0.7,0.1-1.4,0.1-2.1
	C323.2,203.4,313,193.2,300.4,193.2z"/>
<path class="st5" d="M422.7,283.9c-2.6,3.8-5.3,7.4-8.1,10.9l-29.8-19.7l-57.4-37.9l-9.6-6.4L280,205.9l-9.6-6.3L230.3,173l-3.3-2.2
	L210.6,160l-40.5-26.8c2.1-4,4.4-7.9,6.8-11.7l51.1,33.7l51.3,33.9l10.3,6.8h0l33.5,22.1l10.4,6.9l62.1,41.1L422.7,283.9z"/>
<path class="st6" d="M448,201.2c0,30.6-9.3,59.1-25.3,82.6c-2.6,3.8-5.3,7.4-8.1,10.9c-27,32.8-67.9,53.8-113.8,53.8
	c-81.3,0-147.2-65.9-147.2-147.2c0-24.5,6-47.7,16.6-68c2.1-4,4.4-7.9,6.8-11.7C203.2,80.9,248.8,54,300.8,54
	C382.1,54,448,119.9,448,201.2z"/>
<rect x="4" y="4" class="st7" width="592" height="392"/>
</svg>
