<?xml version="1.0" encoding="utf-8"?>
<!-- Generator: Adobe Illustrator 22.1.0, SVG Export Plug-In . SVG Version: 6.00 Build 0)  -->
<svg version="1.1" id="Layer_1" xmlns="http://www.w3.org/2000/svg" xmlns:xlink="http://www.w3.org/1999/xlink" x="0px" y="0px"
	 viewBox="0 0 600 400" style="enable-background:new 0 0 600 400;" xml:space="preserve">
<style type="text/css">
	.st0{fill:#224A6D;stroke:#FFFFFF;stroke-width:8.9923;stroke-miterlimit:10;}
	.st1{fill:#224A6D;stroke:#FFFFFF;stroke-width:24;stroke-miterlimit:10;}
	.st2{fill:none;stroke:#306E6F;stroke-width:8.0341;stroke-miterlimit:10;}
	.st3{fill:#FFFFFF;}
	.st4{fill:#DDDDDD;}
	.st5{fill:#DDDDDD;stroke:#FFFFFF;stroke-width:6.0768;stroke-miterlimit:10;}
	.st6{fill:none;stroke:#DDDDDD;stroke-width:5.9966;stroke-miterlimit:10;}
	.st7{fill:none;stroke:#DDDDDD;stroke-width:8.0341;stroke-miterlimit:10;}
</style>
<rect x="-53.5" y="-50.5" class="st0" width="704" height="543"/>
<g>
	<path class="st3" d="M224.5,120.4h-19.7V112h48.7v8.4H234v55h-9.5V120.4z"/>
	<path class="st3" d="M260.4,152.4c0-13.2,8.9-24,23.2-24c14.3,0,23.2,10.8,23.2,24c0,13.3-8.8,24.1-23.2,24.1
		C269.4,176.5,260.4,165.7,260.4,152.4z M297.9,152.4c0-8.6-5-16.4-14.3-16.4c-9.1,0-14.2,7.8-14.2,16.4c0,8.7,5.1,16.5,14.2,16.5
		C292.8,168.9,297.9,161.1,297.9,152.4z"/>
	<path class="st3" d="M348.6,169.1c-3.5,3.8-9.3,7.4-16.3,7.4c-9.8,0-14.6-4.9-14.6-14.6v-32.4h8.6V159c0,7.6,3.8,9.9,9.7,9.9
		c5.3,0,10.2-3,12.7-6.5v-33h8.5v45.9h-8.5V169.1z"/>
	<path class="st3" d="M370.7,129.5h8.6v7c3.5-4.6,8.9-8.1,15-8.1v8.6c-0.9-0.2-1.8-0.3-2.9-0.3c-4.3,0-10.1,3.2-12.1,6.7v31.9h-8.6
		V129.5z"/>
	<path class="st3" d="M122.7,247.4c0-13.2,8.9-24,23.2-24c14.3,0,23.2,10.8,23.2,24c0,13.3-8.8,24.1-23.2,24.1
		C131.7,271.5,122.7,260.7,122.7,247.4z M160.2,247.4c0-8.6-5-16.4-14.3-16.4c-9.1,0-14.2,7.8-14.2,16.4c0,8.7,5.1,16.5,14.2,16.5
		C155.1,263.9,160.2,256.1,160.2,247.4z"/>
	<path class="st3" d="M179.9,287.8v-63.4h8.6v6.6c3.3-4.6,8.8-7.7,15-7.7c12,0,20.4,9,20.4,24s-8.5,24.1-20.4,24.1
		c-6,0-11.3-2.8-15-7.8v24.1H179.9z M201.2,230.9c-5.2,0-10.5,3-12.7,6.7v19.5c2.3,3.6,7.5,6.7,12.7,6.7c8.6,0,13.8-6.9,13.8-16.5
		C215,237.9,209.7,230.9,201.2,230.9z"/>
	<path class="st3" d="M254.9,223.3c13.8,0,22.3,10.7,22.3,24.8v2.1h-36.3c0.7,7.8,6.4,14.3,15.6,14.3c4.8,0,10.2-1.9,13.6-5.4l4,5.6
		c-4.6,4.5-11,6.8-18.4,6.8c-13.7,0-23.8-9.7-23.8-24.1C231.9,234.1,241.5,223.3,254.9,223.3z M240.8,244.1h28
		c-0.2-6.1-4.3-13.7-14-13.7C245.7,230.4,241.3,237.8,240.8,244.1z"/>
	<path class="st3" d="M287.9,224.5h8.6v7c3.5-4.6,8.9-8.1,15-8.1v8.6c-0.9-0.2-1.8-0.3-2.9-0.3c-4.3,0-10.1,3.2-12.1,6.7v31.9h-8.6
		V224.5z"/>
	<path class="st3" d="M348.4,265.3c-3.6,4-8.8,6.2-15,6.2c-7.6,0-16-5.1-16-15.2c0-10.5,8.3-15,16-15c6.2,0,11.5,2,15,6.1v-7.6
		c0-5.7-4.7-9.1-11.2-9.1c-5.2,0-9.7,2-13.8,6.1l-3.7-5.9c5.1-5,11.4-7.5,18.8-7.5c10,0,18.4,4.4,18.4,16.1v31h-8.5V265.3z
		 M348.4,252.5c-2.6-3.4-7-5.2-11.8-5.2c-6.2,0-10.5,3.7-10.5,9.1s4.4,9.1,10.5,9.1c4.8,0,9.2-1.8,11.8-5.2V252.5z"/>
	<path class="st3" d="M372.3,260.2V232h-7.6v-7.5h7.6v-12.5h8.6v12.5h9.3v7.5h-9.3v26.3c0,3.2,1.5,5.6,4.5,5.6c2,0,3.8-0.9,4.7-1.8
		l2.2,6.5c-1.8,1.7-4.5,2.9-8.9,2.9C376,271.5,372.3,267.4,372.3,260.2z"/>
	<path class="st3" d="M396.8,247.4c0-13.2,8.9-24,23.2-24c14.3,0,23.2,10.8,23.2,24c0,13.3-8.8,24.1-23.2,24.1
		C405.7,271.5,396.8,260.7,396.8,247.4z M434.2,247.4c0-8.6-5-16.4-14.3-16.4c-9.1,0-14.2,7.8-14.2,16.4c0,8.7,5.1,16.5,14.2,16.5
		C429.2,263.9,434.2,256.1,434.2,247.4z"/>
	<path class="st3" d="M454,224.5h8.6v7c3.5-4.6,8.9-8.1,15-8.1v8.6c-0.9-0.2-1.8-0.3-2.9-0.3c-4.3,0-10.1,3.2-12.1,6.7v31.9H454
		V224.5z"/>
</g>
</svg>
